<?xml version="1.0" encoding="utf-8"?>
<!-- Generator: Adobe Illustrator 25.0.0, SVG Export Plug-In . SVG Version: 6.00 Build 0)  -->
<svg version="1.0" id="Layer_1" xmlns="http://www.w3.org/2000/svg" xmlns:xlink="http://www.w3.org/1999/xlink" x="0px" y="0px"
	 viewBox="0 0 512 512" style="enable-background:new 0 0 512 512;" xml:space="preserve">
<g>
	<path style="fill:#F1F2F2;" d="M419.3,248.9c-27.3-17.5-55-15.7-73.6-11.2c-8,2-14.9,4.6-20.3,7c-8.5-26.5-20.3-53.3-31.5-76.1
		c2.3,0.5,4.7,0.9,7,1.1c1.3,0.1,2.6,0.2,3.9,0.2c13,0,24.6-5.5,34.7-16.3c4-4.3,4.5-10.9,1.1-15.7c-0.5-0.7-12.1-17.1-29.6-29.9
		c-24.3-17.6-44.5-17.2-58.9-12.2c-3.1-2.1-7-2.8-10.7-1.7c-3.6,1.1-6.4,3.7-7.9,7c-7.7,1.5-19,4.3-30.7,9.5
		c-28.7,12.6-45.6,32.8-48.8,58.5c-0.5,3.7,0.7,7.3,3.2,10c2.4,2.7,5.9,4.1,9.6,4c0,0,0.1,0,0.1,0c4.3-0.2,35.8-2,60.5-17
		c-5.2,28-13.6,49.5-20.4,63.8c-2.1,4.4-4.4,8.7-6.8,12.9c-3.3-2.4-6.1-4.6-8.6-6.8c-10.7-9.3-35-22.9-78.7-8.7
		c-28.3,9.2-49.1,33.8-54.2,64.2c-2.9,16.9-0.7,34.6,6.3,51.1c7.6,18,20.4,33.9,38.1,47.4c23.4,17.8,48.1,27.2,71.4,27.2
		c10.1,0,19.9-1.7,29.2-5.2c21.9-8.2,38.9-25.2,48.3-48.1c7.7,20.2,21.3,35.7,40,45.2c13.1,6.7,28.2,10.1,44.7,10.1
		c21.4,0,44.3-5.6,68.3-16.7c28.8-13.3,49.7-44.8,52.1-78.4C459.2,293.1,445.4,265.6,419.3,248.9z M220.1,258.3
		c3.3-5.5,6.4-11.4,9.3-17.4c9.7-20.1,21.2-51.2,25.9-92.3c14.3,26.1,35,67.3,47.3,106.9c-7.2,3.5-16.5,8.7-25.5,16
		c-10.9,8.8-19,18.8-24.3,29.7C246.4,286.5,235.5,272,220.1,258.3z"/>
	<g>
		<g>
			<path style="fill:#FF404E;" d="M195.8,254.9c-4.3-3-7.9-6.9-12.3-9.5c-12.4-7.4-28-18.8-66.6-6.2c-51.5,16.7-70.1,92.2-6.1,140.9
				c62.9,47.9,122.7,20.6,134.9-37.6C254.3,301.3,214,267.7,195.8,254.9z"/>
			<path style="fill:#5B1F26;" d="M174.6,407.2c-21.1,0-43.5-8.5-65.4-25.1c-16.3-12.4-28.1-27-35-43.4c-6.2-14.7-8.2-30.5-5.6-45.5
				c4.5-26.8,22.7-48.4,47.5-56.4c37.9-12.3,54.6-2.1,66.9,5.4c0.6,0.4,1.2,0.7,1.8,1.1c2.7,1.6,5.1,3.7,7.4,5.6
				c1.7,1.4,3.3,2.8,5,4l0,0c18.3,12.9,59.8,47.4,50.9,90.1c-6.1,28.8-23.5,50.5-47.8,59.6C192.1,405.6,183.5,407.2,174.6,407.2z
				 M147.8,236c-8.1,0-17.9,1.5-30.2,5.5c-23,7.4-39.8,27.5-44.1,52.5c-5.2,30.7,8.9,61.4,38.7,84.1c29.6,22.5,60.2,29.6,86.3,19.8
				c22.7-8.4,38.9-28.8,44.6-55.9c8.4-39.8-31.4-72.7-48.8-85l0,0c-1.9-1.3-3.7-2.8-5.4-4.3c-2.3-1.9-4.4-3.7-6.8-5.2
				c-0.6-0.4-1.2-0.7-1.8-1.1C172.5,241.6,163.3,236,147.8,236z"/>
		</g>
		<g>
			<path style="fill:#FF404E;" d="M319,262.1c0,0,48-31.9,93.5-2.7c53.5,34.3,34.2,110.1-12.8,131.8
				c-71.8,33.2-128.9,11.2-140.4-47.1C248,285.8,319,262.1,319,262.1z"/>
			<path style="fill:#5B1F26;" d="M336.7,409.2c-14.8,0-28.3-3-40.1-9c-20.9-10.7-34.6-29.9-39.6-55.7c-4.9-24.8,4.3-47.4,26.4-65.3
				c15.5-12.5,32-18.5,34.6-19.4c2-1.3,13.6-8.4,30.2-12.5c16.6-4.1,41.5-5.7,65.8,9.9c23,14.7,35.1,38.8,33.2,66.2
				c-2.1,30.1-20.7,58.2-46.3,70C378.1,404,356.3,409.2,336.7,409.2z M370.7,249.7c-27.9,0-49.9,14.3-50.2,14.5
				c-0.2,0.1-0.4,0.2-0.6,0.3c-0.2,0.1-17.6,6-33.4,18.8c-20.8,16.9-29.1,37.2-24.5,60.3c4.7,24.2,17.5,42.2,37,52.2
				c26,13.3,61.5,10.9,99.9-6.8c24-11.1,41.4-37.5,43.4-65.8c1.8-25.4-9.5-47.9-30.9-61.6C397.5,252.7,383.5,249.7,370.7,249.7z
				 M319,262.1L319,262.1L319,262.1z"/>
		</g>
		<g>
			<path style="fill:#5B1F26;" d="M322.9,288c-1.2,0-2.2-0.9-2.5-2.1c-11.5-65.5-58-146.4-72.9-171c-0.8,55.6-14.9,96.6-27.1,121.7
				c-13.9,28.7-27.7,42.9-28.3,43.5c-1,1-2.6,1-3.5,0c-1-1-1-2.6,0-3.5c0.1-0.1,14-14.4,27.5-42.4c12.5-25.9,27.2-69.1,26.4-128.1
				c0-1.1,0.7-2.1,1.8-2.4c1.1-0.3,2.2,0.1,2.8,1c0.6,1,64.4,101.5,78.2,180.3c0.2,1.4-0.7,2.7-2,2.9C323.2,288,323,288,322.9,288z"
				/>
		</g>
		<g>
			<path style="fill:#5B1F26;" d="M205.2,287.8c-0.1,0-0.2,0-0.3,0c-19-2.6-24.5-15.3-24.7-15.8c-0.5-1.3,0.1-2.7,1.3-3.3
				c1.3-0.5,2.7,0.1,3.3,1.3c0.2,0.5,4.8,10.6,20.8,12.8c1.4,0.2,2.3,1.5,2.1,2.8C207.5,286.9,206.4,287.8,205.2,287.8z"/>
		</g>
		<g>
			<path style="fill:#5B1F26;" d="M314,290.5c-1.9,0-3.1-0.3-3.3-0.3c-1.3-0.3-2.2-1.6-1.9-3c0.3-1.3,1.6-2.2,3-1.9
				c0.4,0.1,9.8,1.9,19.4-8.2c1-1,2.5-1,3.5-0.1c1,1,1,2.5,0.1,3.5C326.7,289.1,318.5,290.5,314,290.5z"/>
		</g>
		<g>
			<path style="fill:#8DC63F;" d="M244.5,112c0,0-71.6,7.2-78,58.6C166.5,170.6,249.3,167.1,244.5,112z"/>
			<path style="fill:#5B1F26;" d="M166.5,173.1c-0.7,0-1.4-0.3-1.8-0.8c-0.5-0.5-0.7-1.3-0.6-2c2.7-21.9,17.6-39.4,42.9-50.5
				c18.8-8.3,36.6-10.1,37.3-10.2c0.7-0.1,1.3,0.1,1.8,0.6c0.5,0.4,0.8,1,0.9,1.7c1.2,13.3-2.5,24.8-10.8,34.3
				c-21.7,24.7-67.7,26.9-69.6,27C166.6,173.1,166.5,173.1,166.5,173.1z M242.2,114.8c-12.4,1.9-65.2,12.2-72.7,53
				c10.6-0.9,45.8-5.5,63-25.1C239.3,135,242.5,125.6,242.2,114.8z"/>
		</g>
		<g>
			<path style="fill:#8DC63F;" d="M330.3,145c0,0-42.7-61.2-85.3-31.6C245,113.4,292.5,185.4,330.3,145z"/>
			<path style="fill:#5B1F26;" d="M304.7,159.8c-1,0-2,0-3-0.1c-30.5-2.6-57.6-43.2-58.8-44.9c-0.7-1.1-0.5-2.7,0.7-3.4
				c18.4-12.7,39.6-11.1,61.5,4.8c16.2,11.7,26.8,26.9,27.3,27.5c0.7,1,0.6,2.3-0.2,3.1C324,155.4,314.8,159.8,304.7,159.8z
				 M248.5,114.1c5.9,8.3,29.2,38.6,53.6,40.7c9.1,0.8,17.4-2.6,24.9-9.9c-3.2-4.2-12.5-15.7-25-24.7
				C282.7,106,264.7,104,248.5,114.1z"/>
		</g>
		<g>
			<path style="fill:#5B1F26;" d="M195.2,151.3c-0.8,0-1.6-0.4-2.1-1.2c-0.7-1.2-0.4-2.7,0.8-3.4c22.3-14.1,45.9-34.7,46.2-34.9
				c1-0.9,2.6-0.8,3.5,0.2c0.9,1,0.8,2.6-0.2,3.5c-0.2,0.2-24.1,21.1-46.8,35.3C196.1,151.2,195.6,151.3,195.2,151.3z"/>
		</g>
		<g>
			<path style="fill:#5B1F26;" d="M290.6,134.5c-0.5,0-1-0.1-1.4-0.4c-21.1-14.4-42.4-18.9-42.6-18.9c-1.4-0.3-2.2-1.6-1.9-3
				s1.6-2.2,3-1.9c0.9,0.2,22.5,4.7,44.4,19.7c1.1,0.8,1.4,2.3,0.7,3.5C292.2,134.1,291.4,134.5,290.6,134.5z"/>
		</g>
		<g>
			<path style="fill:#5B1F26;" d="M419.6,292.7c-1,0-1.9-0.6-2.3-1.6c-5.9-15.1-18.8-20.8-18.9-20.9c-1.3-0.5-1.8-2-1.3-3.3
				s2-1.9,3.3-1.3c0.6,0.3,14.9,6.5,21.6,23.6c0.5,1.3-0.1,2.7-1.4,3.2C420.2,292.6,419.9,292.7,419.6,292.7z"/>
		</g>
		<g>
			<path style="fill:#5B1F26;" d="M88.5,287.3c-0.3,0-0.6-0.1-0.9-0.2c-1.3-0.5-1.9-2-1.4-3.3c0.3-0.8,8.5-20.3,30-29.5
				c1.3-0.5,2.7,0,3.3,1.3c0.5,1.3,0,2.7-1.3,3.3c-19.6,8.4-27.3,26.6-27.3,26.8C90.4,286.7,89.5,287.3,88.5,287.3z"/>
		</g>
		<g>
			<path style="fill:#5B1F26;" d="M313.5,389.7c-10.4,0-16.7-7.6-16.9-7.9c-0.9-1.1-0.7-2.6,0.4-3.5c1.1-0.9,2.6-0.7,3.5,0.4
				c0.2,0.3,5.8,6.9,14.6,6c1.4-0.1,2.6,0.9,2.7,2.3c0.1,1.4-0.9,2.6-2.3,2.7C314.8,389.6,314.1,389.7,313.5,389.7z"/>
		</g>
		<g>
			<path style="fill:#5B1F26;" d="M194.8,387.6c-0.9,0-1.8-0.5-2.3-1.4c-0.6-1.2-0.1-2.7,1.2-3.3c14.6-6.9,17.2-16.1,17.2-16.2
				c0.4-1.3,1.7-2.1,3.1-1.8c1.3,0.4,2.1,1.7,1.8,3.1c-0.1,0.5-3.3,11.5-19.9,19.4C195.5,387.5,195.1,387.6,194.8,387.6z"/>
		</g>
	</g>
</g>
</svg>
