<?xml version="1.0" encoding="utf-8"?>
<!-- Generator: Adobe Illustrator 25.0.0, SVG Export Plug-In . SVG Version: 6.00 Build 0)  -->
<svg version="1.0" id="Layer_1" xmlns="http://www.w3.org/2000/svg" xmlns:xlink="http://www.w3.org/1999/xlink" x="0px" y="0px"
	 viewBox="0 0 512 512" style="enable-background:new 0 0 512 512;" xml:space="preserve">
<g>
	<path style="fill:#F1F2F2;" d="M414.9,169C414.9,169,414.9,169,414.9,169l-1.6-15.7c0-0.3-0.1-0.6-0.1-0.9c0-0.2-0.1-0.5-0.2-0.7
		c-0.1-0.5-0.3-0.9-0.4-1.4c-0.1-0.3-0.2-0.6-0.4-0.9c-0.2-0.4-0.4-0.8-0.6-1.1c-0.2-0.3-0.3-0.5-0.5-0.8c0,0-0.1-0.1-0.1-0.1
		c-0.1-0.1-0.1-0.2-0.2-0.3c-5.3-7.2-16.9-12.3-37.4-16.4c-10.4-2.1-22.9-3.8-36.8-5.2c1.8-1.8,3.4-3.4,4.6-4.8
		c8.9-9.6,10.1-13.1,10.5-15.9c1.9-13.5-13.6-31.4-13.7-31.6c-7.5-8-30-7.5-39.4-6.9c-15.2,1-39.3,4.7-69.5,16.6
		c-13.4-4.9-33.9,6.3-43.2,12c-8.7,5.4-16.3,11.6-21.6,17.5c-3.6,4-6,7.9-7.2,11.6c-13.2,10.7-25.1,22.4-35.2,35
		c-15.5,19.2-24.5,37.2-25.1,44.4c0,0.3,0,0.6,0,0.9c0,0.1,0,0.3,0,0.4c-0.1,5.8,2.5,12.1,8,19.1c4.4,5.6,11,8.9,18.1,8.9
		c1.2,0,2.5-0.1,3.7-0.3c6.7-1.1,13.5-2.4,20.3-3.9c0.4,18.1,1.1,41.3,1.9,64.7c4,115.5,8,120.7,11.5,125.2
		c2.8,3.7,8.9,8.5,30.9,13.5c14.2,3.2,31.9,5.7,49.8,7.1c10.3,0.8,20.9,1.2,31.5,1.2c38.3,0,72.8-4.9,102.6-14.6
		c9.7-2.6,20.8-10.5,20.8-24.5c0-1.1,0-4.8,0-10.4c0.3-106.2,0.2-172.6-0.4-198.2c0.5-0.1,1-0.2,1.5-0.3
		C408.2,190.1,416,180,414.9,169z"/>
	<g>
		<g>
			<g>
				<path style="fill:#7FAD96;" d="M158.5,182.4c0,0,3.7,217.7,11.8,228.2c8.1,10.4,116.1,30.6,201.4,2.8c0,0,11.8-2.8,11.8-12.5
					s0.7-201.7-0.7-218.4c0,0,2.2-9.7-2.2-9c-4.4,0.7-155.8,13.2-206.6,1.4C173.9,174.8,158.5,170.6,158.5,182.4z"/>
				<path style="fill:#660C12;" d="M272.6,429.9c-12,0-22.6-0.5-30.8-1.1c-36.1-2.7-68.4-10-73.6-16.7c-1.5-2-5.5-7.2-9.4-119.4
					c-1.9-55.1-2.8-109.7-2.8-110.2c0,0,0,0,0,0c0-4.6,2-7.2,3.7-8.5c5.3-4,13.9-1.9,14.8-1.6c49.3,11.5,199.5-0.5,205.5-1.4
					c1.6-0.2,3,0.2,4,1.3c2.4,2.5,1.6,7.8,1.1,10.4c0.8,11.2,1.1,81.1,0.7,207.8c0,5.6,0,9.3,0,10.4c0,11.2-12.2,14.6-13.6,14.9
					C337.7,427.1,301,429.9,272.6,429.9z M161,182.4c1.4,83.4,5.7,218.7,11.2,226.7c2.8,3.6,28.6,11.7,70,14.8
					c27.2,2,80.1,3,128.7-12.8c0.1,0,0.1,0,0.2-0.1c0.4-0.1,9.8-2.5,9.8-10.1c0-1.1,0-4.8,0-10.5c0.4-128.2,0.1-198.1-0.8-207.8
					c0-0.3,0-0.5,0.1-0.8c0.5-2.3,0.6-4.9,0.3-6c-10.1,1.3-156.8,13.1-207.2,1.3c-2-0.5-7.8-1.4-10.6,0.7
					C161.6,178.8,161,180.3,161,182.4z"/>
			</g>
			<g>
				<path style="fill:#660C12;" d="M199.3,398.1c0,0-0.1,0-0.1,0c-6.6-0.1-12.9-7.5-14-16.4c0-0.1,0-0.1,0-0.2
					c0-0.4-2-40.7-3.3-81.4c-2.8-83.2-0.4-87.2,0.6-89c2.5-4.2,6.7-6.3,11.4-5.5c5,0.9,9.3,4.7,10.2,9.1
					c1.2,6.3,7.4,156.7,4.9,172.7C207.4,397.2,201.3,398.1,199.3,398.1z M190.2,381.1c0.9,7,5.5,11.9,9.1,11.9c0,0,0,0,0.1,0
					c3.3,0,4.3-4.6,4.7-6.6c2.3-14.8-3.7-165.1-4.8-171c-0.4-2.3-3.2-4.6-6.1-5.1c-1.9-0.3-4.5,0-6.3,3.1
					C183.6,220.5,187.2,320,190.2,381.1z"/>
			</g>
			<g>
				<path style="fill:#660C12;" d="M256.2,399.1c-0.4,0-0.8,0-1.2-0.1c-7.2-0.7-15.2-7.5-15.2-16.2c-0.1-1.9-2.4-41.4-4-81.4
					c-3.3-83.3-0.4-87.4,0.8-89.2c3.1-4.4,8.3-6.3,14-5.2c5.5,1.1,10.1,4.7,11,8.8c1.5,6.3,9,156.8,5.9,172.9
					C266.1,396.4,261,399.1,256.2,399.1z M247.5,211.8c-2.1,0-4.9,0.6-6.8,3.4c-3.8,7.1,0.5,106.5,4.1,167.5c0,0,0,0.1,0,0.1
					c0,5.9,5.7,10.8,10.7,11.3c2.7,0.3,6-0.6,7.1-6.2c2.8-14.5-4.5-164.8-5.9-170.8c-0.5-2.2-3.6-4.4-7.1-5.1
					C249.1,211.9,248.4,211.8,247.5,211.8z"/>
			</g>
			<g>
				<path style="fill:#660C12;" d="M310.7,399.8c-5.4,0-9.6-3.8-11.2-10.2c-4-15.8-5.1-166.5-4-172.9c0.7-4.2,5-8,10.5-9.4
					c5.7-1.4,11,0.2,14.4,4.4c1.3,1.7,4.5,5.7,5.9,89c0.7,40.8,0.6,81.1,0.6,81.5c0,0.1,0,0.1,0,0.2c-0.8,10.1-8.3,16.8-15.1,17.3
					C311.3,399.7,311,399.8,310.7,399.8z M309.9,211.7c-1.1,0-2.1,0.2-2.7,0.3c-3.4,0.9-6.4,3.2-6.8,5.4c-1,6,0.3,156.5,3.9,170.8
					c1.1,4.4,3.6,6.7,7,6.4c4.6-0.4,9.9-5.3,10.5-12.7c0.1-61.1-1.2-160.5-5.5-167.4C314.4,212.3,311.9,211.7,309.9,211.7z
					 M324.3,382.2L324.3,382.2L324.3,382.2z"/>
			</g>
			<g>
				<path style="fill:#660C12;" d="M358.6,395.5c-2.5,0-7.7-1.1-9.5-9.9c-3.4-15.9-6-166.3-5.1-172.7c0.6-4.5,4.6-8.5,9.4-9.6
					c4.5-1,8.8,0.8,11.5,5c1.1,1.7,3.6,5.6,5.7,88.8c1,40.8,1.4,81.1,1.4,81.5c0,0,0,0,0,0c0,8.3-5.9,16.1-12.5,16.8
					C359.2,395.5,359,395.5,358.6,395.5z M355.9,208.1c-0.5,0-0.9,0.1-1.4,0.2c-2.8,0.6-5.3,3-5.6,5.4c-0.8,5.9,1.9,156.3,5.1,171
					c0.5,2.3,1.8,6.2,4.9,5.9c3.7-0.4,8.1-5.7,8.1-11.9c-0.6-61.3-2.8-160.9-6.3-167.6C359.2,208.8,357.4,208.1,355.9,208.1z"/>
			</g>
			<g>
				<path style="fill:#7FAD96;" d="M148.4,151l-2.8,19.2c-0.6,4.3,2.2,8.4,6.6,9.6c24.5,6.5,106.8,23.1,242.7-0.1
					c4.7-0.8,8-4.9,7.5-9.4l-1.6-15.6L148.4,151z"/>
				<path style="fill:#660C12;" d="M262.8,194.1c-59.6,0-97.3-8.2-111.2-11.9c-5.6-1.5-9.3-6.8-8.5-12.4l2.8-19.2
					c0.2-1.2,1.3-2.2,2.5-2.1l252.5,3.7c1.3,0,2.3,1,2.5,2.2L405,170c0.6,5.8-3.6,11.1-9.6,12.1C343.4,191.1,299,194.1,262.8,194.1z
					 M150.6,153.5l-2.5,17c-0.4,3,1.6,6,4.8,6.8c22.2,5.9,105.1,23.2,241.7-0.2c3.4-0.6,5.8-3.5,5.5-6.7l-1.4-13.4L150.6,153.5z"/>
			</g>
			<g>
				<path style="fill:#678977;" d="M148.4,151c7.7,11,62.3,19.6,128.4,19.6c58.6,0,108.1-6.7,124-15.9c-7.7-11-62.3-19.6-128.4-19.6
					C213.8,135.1,164.3,141.8,148.4,151z"/>
				<path style="fill:#660C12;" d="M276.9,173.1c-57.7,0-121-7.1-130.5-20.6c-0.4-0.6-0.5-1.3-0.4-2c0.2-0.7,0.6-1.3,1.2-1.6
					c16.8-9.7,67.1-16.2,125.3-16.2c57.7,0,121,7.1,130.5,20.6c0.4,0.6,0.5,1.3,0.4,2c-0.2,0.7-0.6,1.3-1.2,1.6
					C385.4,166.6,335,173.1,276.9,173.1z M152.7,151.7c11.8,8.4,58.6,16.4,124.2,16.4c53.3,0,101.3-5.7,119.8-14.1
					c-11.8-8.4-58.6-16.4-124.2-16.4C219.2,137.6,171.2,143.3,152.7,151.7z"/>
			</g>
		</g>
		<g>
			<g>
				<path style="fill:#7FAD96;" d="M124.7,219.9c-3.8,0.6-7.6-0.9-9.9-3.9c-2.7-3.5-5.7-8.2-5.4-11.7c0.5-6.3,26.6-61.4,97.3-97.6
					S325.5,78,328.9,81.7c3.4,3.7,11.3,16,10.5,21.3C338.6,108.4,255.6,198.5,124.7,219.9z"/>
				<path style="fill:#660C12;" d="M123,222.6c-4,0-7.7-1.8-10.2-5c-4.2-5.4-6.2-9.9-5.9-13.4c0.3-4,7.6-20,22.9-38.9
					c13.7-17,38-41.4,75.7-60.7C274.7,69.1,325.6,74.5,330.7,80c3,3.3,12.1,16.5,11.1,23.4c-0.6,4.3-23.8,29.2-59.6,54.1
					c-33.6,23.4-88.2,53.6-157.2,64.9c0,0,0,0,0,0C124.4,222.5,123.7,222.6,123,222.6z M124.7,219.9L124.7,219.9L124.7,219.9z
					 M307.4,81c-20.2,0-54.7,5-99.7,28c-70.7,36.3-95.5,90.8-95.9,95.6c-0.2,2.1,1.6,5.7,4.9,9.9c1.8,2.3,4.7,3.4,7.5,3
					c67.2-11,120.5-40.3,153.4-62.9c37.8-26,57.7-48.9,59.3-52.1c0.3-4.2-6.3-15.2-9.8-19C326,82.7,319.1,81,307.4,81z"/>
			</g>
			<g>
				<path style="fill:#660C12;" d="M109.4,206.9c-1.3,0-2.5-1.1-2.5-2.4c0-1.4,1-2.5,2.4-2.6c0.2,0,25.3-1,61-17.5
					C221,161,306,121.8,326.7,80.6c0.6-1.2,2.1-1.7,3.4-1.1c1.2,0.6,1.7,2.1,1.1,3.4c-21.5,42.7-104.1,80.9-158.7,106.1
					C135.7,205.9,110.5,206.8,109.4,206.9C109.4,206.9,109.4,206.9,109.4,206.9z"/>
			</g>
			<g>
				
					<ellipse transform="matrix(0.8487 -0.5289 0.5289 0.8487 -33.1309 125.4636)" style="fill:#678977;" cx="202.7" cy="120.6" rx="34" ry="10.1"/>
				<path style="fill:#660C12;" d="M179,143c-4.2,0-6.3-1.5-7.2-3.1c-1.5-2.3-1.8-6.7,4.9-14.3c4.6-5.2,11.5-10.7,19.4-15.7
					c14.9-9.3,33-15.9,37.6-8.6l0,0c1.5,2.3,1.8,6.7-4.9,14.3c-4.6,5.2-11.5,10.7-19.4,15.7c-7.9,4.9-15.9,8.6-22.6,10.5
					C183.6,142.7,181,143,179,143z M226.6,103.2c-4.6,0-14.7,2.7-28,11c-7.5,4.7-14,9.9-18.3,14.7c-4.1,4.6-4.9,7.6-4.4,8.3
					c0.5,0.8,3.4,1.3,9.4-0.3c6.2-1.7,13.8-5.2,21.3-9.9s14-9.9,18.3-14.7c4.1-4.6,4.9-7.6,4.4-8.3l0,0
					C229.1,103.5,228.2,103.2,226.6,103.2z"/>
			</g>
			<g>
				
					<ellipse transform="matrix(0.8487 -0.5289 0.5289 0.8487 -30.364 121.9528)" style="fill:#7FAD96;" cx="197.9" cy="114" rx="34" ry="10.1"/>
				<path style="fill:#660C12;" d="M174.2,136.4c-3.3,0-5.9-0.9-7.2-3.1c-1.5-2.3-1.8-6.7,4.9-14.3c4.6-5.2,11.5-10.7,19.4-15.7
					c14.9-9.3,33-15.9,37.6-8.6c1.5,2.3,1.8,6.7-4.9,14.3c-4.6,5.2-11.5,10.7-19.4,15.7C194.1,131.2,182.1,136.4,174.2,136.4z
					 M221.9,96.6c-4.6,0-14.7,2.7-28,11c-7.5,4.7-14,9.9-18.3,14.7c-4.1,4.6-4.9,7.6-4.4,8.3c1.2,1.9,13.1,0.8,30.7-10.2
					c7.5-4.7,14-9.9,18.3-14.7c4.1-4.6,4.9-7.6,4.4-8.3l0,0C224.3,96.9,223.4,96.6,221.9,96.6z"/>
			</g>
		</g>
	</g>
</g>
</svg>
