<?xml version="1.0" encoding="utf-8"?>
<!-- Generator: Adobe Illustrator 25.0.0, SVG Export Plug-In . SVG Version: 6.00 Build 0)  -->
<svg version="1.0" id="Layer_1" xmlns="http://www.w3.org/2000/svg" xmlns:xlink="http://www.w3.org/1999/xlink" x="0px" y="0px"
	 viewBox="0 0 512 512" style="enable-background:new 0 0 512 512;" xml:space="preserve">
<g>
	<path style="fill:#F1F2F2;" d="M390.6,317.6c6.7-14.8,7.2-31.3,1.5-46.5c-1.7-4.5-3.9-8.7-6.5-12.6c7.2-14.9,8-32,2-47.7
		c-2.5-6.5-6-12.5-10.5-17.8c0.5-0.7,0.9-1.4,1.3-2c1.9-3.1,2.4-6.8,1.3-10.3c-1.1-3.5-3.6-6.3-6.9-7.8c-0.2-0.1-0.7-0.3-1.5-0.6
		c5.8-8.3,10.9-19.5,13.2-34.1c0.6-3.6-0.5-7.3-2.8-10c-2.4-2.8-5.8-4.4-9.5-4.4c-1.9,0-16,0.2-31.1,6.2c-1.2-4.8-3.1-10.1-6.3-15.4
		c-3.3-5.5-10.5-7.6-16.3-4.8c-0.5,0.2-1.4,0.7-2.5,1.4c-4.4,2.5-8.4,5.6-12.1,9c-3.3-26.8-9.5-49.4-11.5-56.5
		c-0.3-9.4-1.4-18.4-3.2-26.7c-0.7-3.3-2.6-6.1-5.4-7.9c-2.8-1.8-6.2-2.4-9.4-1.7c-3.3,0.7-6.1,2.6-7.9,5.4
		c-1.8,2.8-2.4,6.1-1.7,9.4c1.5,6.9,2.4,14.5,2.6,22.6c0,0.6,0,1.2,0,1.8c0.1,4.3,0,8.8-0.3,13.4c-23.4,17.1-37.4,35-45.8,50.1
		c-7.9-7.2-18.5-11.5-31.4-12.7c-3.6-0.3-7.2,0.9-9.8,3.4c-2.6,2.5-4,6-3.8,9.6c0,0.2,0,0.6,0.1,1.3c-9.9-1.3-21.9-0.9-35.7,3.6
		c-3.5,1.1-6.3,3.7-7.7,7.1c-1.4,3.4-1.3,7.2,0.3,10.4c0.9,1.7,7.2,13.9,19.2,24.5c-3.7,3.2-7.4,7.2-10.6,12.3
		c-3.2,5.1-2.3,11.8,2.1,15.8c-14.9,16.6-19.7,40.3-11.5,62c1.6,4.3,3.7,8.4,6.3,12.2c-17.3,14.9-24,39.5-15.7,61.5
		c5.1,13.4,14.9,24.2,27.8,30.3c-1.1,9.6,0.1,19.3,3.5,28.4c5.7,15.2,17,27.2,31.8,33.9c7.9,3.5,16.2,5.4,24.7,5.4
		c0.5,2.1,1.2,4.1,2,6.1C222,469.2,244.9,485,270,485c7.3,0,14.5-1.3,21.4-3.9c15.2-5.7,27.2-17,33.9-31.8c1.2-2.6,2.2-5.3,3-8.1
		c8.6,0.9,17.2-0.2,25.3-3.3c28.6-10.8,43-42.8,32.2-71.4c-2.1-5.5-4.9-10.5-8.5-15c2-6,3.1-12.2,3.1-18.4
		C384.7,328.5,388.1,323.3,390.6,317.6z M255.5,142.6c-2,1.6-4,3.4-5.8,5.2c-0.6-0.3-1.2-0.6-1.8-0.9c-1.8-0.8-3.7-1.6-5.6-2.2
		c4.2-8.1,10.4-17.4,19.6-27C260.1,125.9,258,134.2,255.5,142.6z"/>
	<g>
		<g>
			<path style="fill:#8DC63F;" d="M224.2,170.9c0,0,4.4-37.3-35.2-40.8c0,0,0.7,13.1,7.2,21.8c0,0-20.3-14.4-51.4-4.4
				c0,0,11.4,22.9,32.9,31.1c0,0-15.2,2.5-24.9,18c0,0,0.6,0.4,1.7,1.1c27,17.6,63.5,6.7,69.4-25L224.2,170.9z"/>
			<path style="fill:#5B1F26;" d="M182.3,208.6c-10.1,0-20.4-3-29.3-8.8c-1.1-0.7-1.8-1.2-1.8-1.2c-1-0.8-1.3-2.2-0.6-3.3
				c6.2-9.9,14.4-14.8,20.1-17.1c-18.2-9.8-27.8-28.7-28.2-29.5c-0.3-0.7-0.4-1.4-0.1-2.1s0.8-1.2,1.5-1.4c21-6.8,37.2-2.9,46,0.8
				c-3.1-7.7-3.5-15.3-3.5-15.7c0-0.7,0.2-1.4,0.8-1.9c0.5-0.5,1.2-0.8,2-0.7c12.8,1.1,22.5,5.8,29.1,13.8
				c10.3,12.7,8.5,29.1,8.5,29.8c0,0.1,0,0.1,0,0.2l-0.3,1.9c-2.7,14.4-11.8,25.9-25.1,31.6C195.3,207.3,188.9,208.6,182.3,208.6z
				 M156.2,195.9c13.2,8.4,29.6,10,43,4.3c11.9-5.1,19.7-15,22.1-27.9l0.3-1.8c0.1-1.1,1.3-15.4-7.4-26
				c-5.1-6.3-12.7-10.1-22.6-11.6c0.6,4.2,2.2,11.9,6.3,17.5c0.7,1,0.6,2.4-0.2,3.2c-0.9,0.9-2.2,1-3.2,0.3
				c-0.2-0.1-18.5-12.7-46.2-4.9c3.7,6.1,14,21.1,30.1,27.3c1.1,0.4,1.7,1.5,1.6,2.6c-0.1,1.1-1,2-2.1,2.2
				C178,181.1,165.2,183.4,156.2,195.9z M224.2,170.9L224.2,170.9L224.2,170.9z M224.2,170.9L224.2,170.9L224.2,170.9z"/>
		</g>
		<g>
			<path style="fill:#8DC63F;" d="M314.8,197.6c0,0,31.8,21,53.1-13.3c0,0-12.1-5.4-23-3.5c0,0,22.4-11.8,27.5-44.5
				c0,0-26-0.1-43.2,15.6c0,0,4.7-14.9-4.9-30.8c0,0-0.7,0.3-1.8,1c-28.3,16.4-35.1,54.5-9.1,74.3L314.8,197.6z"/>
			<path style="fill:#5B1F26;" d="M336.6,206.5c-12.7,0-22.7-6.5-23.2-6.8c0,0-0.1-0.1-0.1-0.1l-1.5-1.2
				c-11.8-9-18.1-22.5-17.1-37.2c1-16.6,11.2-32.4,26.5-41.3c1.2-0.7,1.9-1.1,2-1.1c1.2-0.6,2.6-0.2,3.2,1
				c6.1,10.2,6.8,19.9,6.3,26.1c17.3-12.1,38.7-12.1,39.7-12.1c0.7,0,1.4,0.3,1.9,0.9c0.5,0.6,0.7,1.3,0.6,2
				c-3.5,22.2-14.4,35-21.8,41.4c8.4,0.7,15.5,3.8,15.9,4c0.7,0.3,1.2,0.9,1.4,1.6s0.1,1.4-0.3,2.1c-6.9,11-15.5,17.8-25.8,20
				C341.6,206.3,339,206.5,336.6,206.5z M316.2,195.6c1,0.6,13.4,8.2,27,5.2c8-1.8,15-6.9,20.8-15.2c-4-1.4-11.8-3.5-18.8-2.3
				c-1.2,0.2-2.4-0.5-2.8-1.7c-0.4-1.2,0.1-2.4,1.2-3c0.2-0.1,19.9-10.9,25.6-39.7c-7.1,0.5-25.6,3-38.6,14.8
				c-0.8,0.8-2.1,0.9-3,0.3c-1-0.6-1.4-1.8-1-2.9c0-0.1,3.8-12.8-3.5-26.7c-13.7,8.1-22.7,22.3-23.6,37.1
				c-0.8,13.1,4.6,24.8,15.2,32.9L316.2,195.6z"/>
		</g>
		<g>
			<path style="fill:#5B1F26;" d="M257,178.3c-0.3,0-0.7-0.1-1-0.2c-1.3-0.5-1.8-2-1.3-3.3c0.3-0.8,32.5-75.9,19.9-134.6
				c-0.3-1.4,0.6-2.7,1.9-3c1.3-0.3,2.7,0.6,3,1.9c12.9,60.3-18.9,134.5-20.2,137.7C258.9,177.8,258,178.3,257,178.3z"/>
		</g>
		<g>
			<circle style="fill:#814689;" cx="211.5" cy="378.7" r="48.3"/>
			<path style="fill:#5B1F26;" d="M211.5,429.5c-7.1,0-14.2-1.5-20.9-4.5c-12.4-5.6-21.8-15.6-26.6-28.3
				c-4.8-12.7-4.4-26.5,1.2-38.8c5.6-12.4,15.6-21.8,28.3-26.6c12.7-4.8,26.5-4.4,38.8,1.2c12.4,5.6,21.8,15.6,26.6,28.3l0,0
				c4.8,12.7,4.4,26.5-1.2,38.8c-5.6,12.4-15.6,21.8-28.3,26.6C223.6,428.4,217.6,429.5,211.5,429.5z M211.5,332.9
				c-5.5,0-10.9,1-16.2,3c-11.4,4.3-20.5,12.8-25.5,24c-5,11.1-5.4,23.6-1.1,35c4.3,11.4,12.8,20.5,24,25.5c11.1,5,23.6,5.4,35,1.1
				c11.4-4.3,20.5-12.8,25.5-24c5-11.1,5.4-23.6,1.1-35l0,0c-4.3-11.4-12.8-20.5-24-25.5C224.3,334.3,218,332.9,211.5,332.9z"/>
		</g>
		<g>
			<circle style="fill:#814689;" cx="189.6" cy="246.2" r="48.3"/>
			<path style="fill:#5B1F26;" d="M189.6,297.1c-7.1,0-14.2-1.5-20.9-4.5c-12.4-5.6-21.8-15.6-26.6-28.3
				c-4.8-12.7-4.4-26.5,1.2-38.8c5.6-12.4,15.6-21.8,28.3-26.6c26.2-9.9,55.6,3.4,65.5,29.6l0,0c4.8,12.7,4.4,26.5-1.2,38.8
				c-5.6,12.4-15.6,21.8-28.3,26.6C201.7,296,195.7,297.1,189.6,297.1z M189.6,200.5c-5.4,0-10.8,1-16.1,3
				c-11.4,4.3-20.5,12.8-25.5,24c-5,11.1-5.4,23.6-1.1,35c4.3,11.4,12.8,20.5,24,25.5c11.1,5,23.6,5.4,35,1.1
				c11.4-4.3,20.5-12.8,25.5-24c5-11.1,5.4-23.6,1.1-35C225.5,211.8,208.1,200.5,189.6,200.5z"/>
		</g>
		<g>
			<circle style="fill:#814689;" cx="226.6" cy="340.8" r="48.3"/>
			<path style="fill:#5B1F26;" d="M226.6,391.6c-7.1,0-14.2-1.5-20.9-4.5c-12.4-5.6-21.8-15.6-26.6-28.3
				c-4.8-12.7-4.4-26.5,1.2-38.8c5.6-12.4,15.6-21.8,28.3-26.6c12.7-4.8,26.5-4.4,38.8,1.2c12.4,5.6,21.8,15.6,26.6,28.3l0,0
				c9.9,26.2-3.4,55.6-29.6,65.5C238.7,390.5,232.6,391.6,226.6,391.6z M226.6,295c-5.5,0-10.9,1-16.2,3
				c-11.4,4.3-20.5,12.8-25.5,24c-5,11.1-5.4,23.6-1.1,35c4.3,11.4,12.8,20.5,24,25.5c11.1,5,23.6,5.4,35,1.1
				c23.6-8.9,35.6-35.4,26.6-59l0,0c-4.3-11.4-12.8-20.5-24-25.5C239.4,296.4,233,295,226.6,295z"/>
		</g>
		<g>
			<circle style="fill:#814689;" cx="335.2" cy="292.6" r="48.3"/>
			<path style="fill:#5B1F26;" d="M335.3,343.4c-20.5,0-39.9-12.5-47.6-32.8c-4.8-12.7-4.4-26.5,1.2-38.8
				c5.6-12.4,15.6-21.8,28.3-26.6c12.7-4.8,26.5-4.4,38.8,1.2c12.4,5.6,21.8,15.6,26.6,28.3c4.8,12.7,4.4,26.5-1.2,38.8
				c-5.6,12.4-15.6,21.8-28.3,26.6C347.3,342.3,341.2,343.4,335.3,343.4z M335.3,246.8c-5.5,0-10.9,1-16.2,3
				c-11.4,4.3-20.5,12.8-25.5,24c-5,11.1-5.4,23.6-1.1,35c8.9,23.6,35.4,35.6,59,26.6c11.4-4.3,20.5-12.8,25.5-24s5.4-23.6,1.1-35
				l0,0c-4.3-11.4-12.8-20.5-24-25.5C348.1,248.2,341.7,246.8,335.3,246.8z"/>
		</g>
		<g>
			<circle style="fill:#965D89;" cx="334.1" cy="386.1" r="42.9"/>
			<path style="fill:#5B1F26;" d="M334.1,431.5c-6.4,0-12.7-1.4-18.7-4c-11-5-19.5-14-23.8-25.3c-8.8-23.4,3-49.6,26.4-58.5
				c11.3-4.3,23.7-3.9,34.7,1.1c11,5,19.5,14,23.8,25.3l0,0c8.8,23.4-3,49.6-26.4,58.5C345,430.5,339.5,431.5,334.1,431.5z
				 M334.2,345.7c-4.8,0-9.6,0.9-14.3,2.6c-20.8,7.9-31.4,31.2-23.5,52c3.8,10.1,11.3,18.1,21.2,22.5c9.8,4.4,20.8,4.8,30.9,1
				c20.8-7.9,31.4-31.2,23.5-52c-3.8-10.1-11.3-18.1-21.2-22.5C345.4,346.9,339.8,345.7,334.2,345.7z"/>
		</g>
		<g>
			<circle style="fill:#814689;" cx="319.8" cy="332.3" r="48.3"/>
			<path style="fill:#5B1F26;" d="M319.8,383.1c-7.1,0-14.2-1.5-20.9-4.5c-12.4-5.6-21.8-15.6-26.6-28.3
				c-9.9-26.2,3.4-55.6,29.6-65.5c12.7-4.8,26.5-4.4,38.8,1.2c12.4,5.6,21.8,15.6,26.6,28.3c4.8,12.7,4.4,26.5-1.2,38.8
				c-5.6,12.4-15.6,21.8-28.3,26.6C331.9,382,325.8,383.1,319.8,383.1z M319.8,286.5c-5.5,0-10.9,1-16.2,3
				c-23.6,8.9-35.6,35.4-26.6,59c4.3,11.4,12.8,20.5,24,25.5c11.1,5,23.6,5.4,35,1.1c11.4-4.3,20.5-12.8,25.5-24s5.4-23.6,1.1-35
				c-4.3-11.4-12.8-20.5-24-25.5C332.6,287.8,326.2,286.5,319.8,286.5z"/>
		</g>
		<g>
			<circle style="fill:#814689;" cx="270" cy="424.2" r="48.3"/>
			<path style="fill:#5B1F26;" d="M270,475c-20.5,0-39.9-12.5-47.6-32.8c-9.9-26.2,3.4-55.6,29.6-65.5c26.2-9.9,55.6,3.4,65.5,29.6
				l0,0c4.8,12.7,4.4,26.5-1.2,38.8c-5.6,12.4-15.6,21.8-28.3,26.6C282,473.9,276,475,270,475z M269.9,378.4c-5.4,0-10.8,1-16.1,3
				c-23.6,8.9-35.6,35.4-26.6,59s35.4,35.6,59,26.6c23.6-8.9,35.6-35.4,26.6-59l0,0C305.9,389.7,288.4,378.4,269.9,378.4z"/>
		</g>
		<g>
			<circle style="fill:#965D89;" cx="250.5" cy="268.3" r="48.3"/>
			<path style="fill:#5B1F26;" d="M250.6,319.1c-20.5,0-39.9-12.5-47.6-32.8c-4.8-12.7-4.4-26.5,1.2-38.8
				c5.6-12.4,15.6-21.8,28.3-26.6c12.7-4.8,26.5-4.4,38.8,1.2c12.4,5.6,21.8,15.6,26.6,28.3s4.4,26.5-1.2,38.8
				c-5.6,12.4-15.6,21.8-28.3,26.6C262.6,318,256.5,319.1,250.6,319.1z M250.5,222.5c-5.5,0-10.9,1-16.2,3
				c-11.4,4.3-20.5,12.8-25.5,24c-5,11.1-5.4,23.6-1.1,35c8.9,23.6,35.4,35.6,59,26.6c11.4-4.3,20.5-12.8,25.5-24s5.4-23.6,1.1-35
				l0,0c-4.3-11.4-12.8-20.5-24-25.5C263.3,223.8,256.9,222.5,250.5,222.5z"/>
		</g>
		<g>
			<circle style="fill:#814689;" cx="330.8" cy="232.3" r="48.3"/>
			<path style="fill:#5B1F26;" d="M330.8,283.1c-20.5,0-39.9-12.5-47.6-32.8c-9.9-26.2,3.4-55.6,29.6-65.5
				c26.2-9.9,55.6,3.4,65.5,29.6c0,0,0,0,0,0c9.9,26.2-3.4,55.6-29.6,65.5C342.8,282.1,336.8,283.1,330.8,283.1z M330.7,186.6
				c-5.4,0-10.8,1-16.1,3c-23.6,8.9-35.6,35.4-26.6,59c8.9,23.6,35.4,35.6,59,26.6s35.6-35.4,26.6-59
				C366.7,197.9,349.2,186.6,330.7,186.6z"/>
		</g>
		<g>
			<circle style="fill:#965D89;" cx="293.1" cy="190.3" r="48.3"/>
			<path style="fill:#5B1F26;" d="M293.2,241.1c-20.5,0-39.9-12.5-47.6-32.8c-9.9-26.2,3.4-55.6,29.6-65.5
				c26.2-9.9,55.6,3.4,65.5,29.6c0,0,0,0,0,0c9.9,26.2-3.4,55.6-29.6,65.5C305.2,240,299.1,241.1,293.2,241.1z M293.1,144.5
				c-5.4,0-10.8,1-16.1,3c-23.6,8.9-35.6,35.4-26.6,59c8.9,23.6,35.4,35.6,59,26.6c23.6-8.9,35.6-35.4,26.6-59
				C329,155.8,311.6,144.5,293.1,144.5z"/>
		</g>
		<g>
			<circle style="fill:#965D89;" cx="222.9" cy="202.3" r="48.3"/>
			<path style="fill:#5B1F26;" d="M222.8,253.2c-7.1,0-14.2-1.5-20.9-4.5c-12.4-5.6-21.8-15.6-26.6-28.3
				c-4.8-12.7-4.4-26.5,1.2-38.8c5.6-12.4,15.6-21.8,28.3-26.6c12.7-4.8,26.5-4.4,38.8,1.2c12.4,5.6,21.8,15.6,26.6,28.3
				c4.8,12.7,4.4,26.5-1.2,38.8s-15.6,21.8-28.3,26.6C235,252.1,228.9,253.2,222.8,253.2z M222.9,156.5c-5.5,0-10.9,1-16.2,3
				c-11.4,4.3-20.5,12.8-25.5,24c-5,11.1-5.4,23.6-1.1,35c4.3,11.4,12.8,20.5,24,25.5c11.1,5,23.6,5.4,35,1.1
				c11.4-4.3,20.5-12.8,25.5-24c5-11.1,5.4-23.6,1.1-35l0,0c-4.3-11.4-12.8-20.5-24-25.5C235.7,157.9,229.3,156.5,222.9,156.5z"/>
		</g>
		<g>
			<circle style="fill:#965D89;" cx="175.1" cy="321.9" r="42.8"/>
			<path style="fill:#5B1F26;" d="M175.1,367.3c-6.3,0-12.7-1.4-18.6-4c-11-5-19.5-14-23.8-25.3c-8.8-23.4,3-49.6,26.4-58.4
				c23.4-8.8,49.6,3,58.4,26.4l0,0c4.3,11.3,3.9,23.6-1.1,34.7s-14,19.5-25.3,23.8C185.9,366.3,180.5,367.3,175.1,367.3z M175,281.6
				c-4.7,0-9.5,0.8-14.2,2.6c-10.1,3.8-18.1,11.3-22.5,21.1c-4.4,9.8-4.8,20.8-1,30.9c3.8,10.1,11.3,18.1,21.1,22.5
				c9.8,4.4,20.8,4.8,30.9,1c10.1-3.8,18.1-11.3,22.5-21.1c4.4-9.8,4.8-20.8,1-30.9l0,0C206.7,291.5,191.3,281.6,175,281.6z"/>
		</g>
		<g>
			<circle style="fill:#965D89;" cx="267.6" cy="363.2" r="48.3"/>
			<path style="fill:#5B1F26;" d="M267.6,414c-20.5,0-39.9-12.5-47.6-32.8c-9.9-26.2,3.4-55.6,29.6-65.5
				c26.2-9.9,55.6,3.4,65.4,29.6l0,0c4.8,12.7,4.4,26.5-1.2,38.8c-5.6,12.4-15.6,21.8-28.3,26.6C279.6,412.9,273.6,414,267.6,414z
				 M267.5,317.4c-5.4,0-10.8,1-16.1,3c-23.6,8.9-35.6,35.4-26.6,59s35.4,35.6,59,26.6s35.6-35.4,26.6-59l0,0
				C303.5,328.7,286,317.4,267.5,317.4z"/>
		</g>
		<g>
			<path style="fill:#5B1F26;" d="M231,235.3c-1.4,0-2.5-1.1-2.5-2.5c0-1.4,1.1-2.5,2.5-2.5c0.4,0,10-0.3,18.1-12.1
				c0.8-1.1,2.3-1.4,3.5-0.7c1.1,0.8,1.4,2.3,0.7,3.5C243.6,235.2,231.5,235.3,231,235.3z"/>
		</g>
		<g>
			<path style="fill:#5B1F26;" d="M254,302.1c-1.2,0-2.3-0.9-2.5-2.1c-0.2-1.4,0.7-2.7,2.1-2.9c15.3-2.6,20.4-11.8,20.5-11.9
				c0.7-1.2,2.2-1.7,3.4-1c1.2,0.7,1.7,2.2,1,3.4c-0.3,0.5-6.3,11.6-24.1,14.5C254.3,302.1,254.1,302.1,254,302.1z"/>
		</g>
		<g>
			<path style="fill:#5B1F26;" d="M269.5,397.1c-2.2,0-3.5-0.4-3.7-0.4c-1.3-0.4-2.1-1.8-1.7-3.1c0.4-1.3,1.8-2,3.1-1.7
				c0.4,0.1,7.8,2.1,16.2-7c0.9-1,2.5-1.1,3.5-0.1c1,0.9,1.1,2.5,0.1,3.5C280.2,395.7,273.4,397.1,269.5,397.1z"/>
		</g>
		<g>
			<path style="fill:#5B1F26;" d="M164.9,348c-0.3,0-0.6-0.1-0.9-0.2c-12.1-4.5-15.9-15-16.1-15.4c-0.5-1.3,0.2-2.7,1.5-3.2
				c1.3-0.5,2.7,0.2,3.2,1.5c0.1,0.4,3.3,8.7,13.1,12.4c1.3,0.5,1.9,1.9,1.5,3.2C166.9,347.4,166,348,164.9,348z"/>
		</g>
		<g>
			<path style="fill:#5B1F26;" d="M362.5,245.8c-0.2,0-0.5,0-0.8-0.1c-1.3-0.4-2-1.8-1.6-3.1c3.7-11.8,0.3-18.1,0.2-18.1
				c-0.7-1.2-0.3-2.7,0.9-3.4c1.2-0.7,2.7-0.3,3.4,0.9c0.2,0.3,4.7,8.1,0.2,22.2C364.6,245.1,363.6,245.8,362.5,245.8z"/>
		</g>
		<g>
			<path style="fill:#5B1F26;" d="M276.9,460c-1.4,0-2.5-1.1-2.5-2.5c0-1.4,1.1-2.5,2.5-2.5c0.4,0,8.8-0.3,17.6-10.9
				c0.9-1.1,2.5-1.2,3.5-0.3c1.1,0.9,1.2,2.5,0.3,3.5C288,459.9,277.4,460,276.9,460z"/>
		</g>
		<g>
			<path style="fill:#5B1F26;" d="M183,248.6c-0.3,0-0.6-0.1-0.9-0.2c-9.8-3.8-13.7-11.3-13.9-11.6c-0.6-1.2-0.1-2.7,1.1-3.4
				c1.2-0.6,2.7-0.1,3.3,1.1c0.1,0.1,3.3,6.2,11.2,9.2c1.3,0.5,1.9,1.9,1.4,3.2C185,247.9,184,248.6,183,248.6z"/>
		</g>
		<g>
			<path style="fill:#5B1F26;" d="M208.1,404.4c-0.2,0-0.3,0-0.5,0c-14.8-3-20.2-11.9-20.5-12.3c-0.7-1.2-0.3-2.7,0.9-3.4
				c1.2-0.7,2.7-0.3,3.4,0.9c0.2,0.3,4.6,7.5,17.1,10c1.4,0.3,2.2,1.6,2,2.9C210.3,403.6,209.2,404.4,208.1,404.4z"/>
		</g>
		<g>
			<path style="fill:#5B1F26;" d="M337.5,394.6c-1.3,0-2.4-1-2.5-2.3c-0.1-1.4,0.9-2.6,2.2-2.7c0.2,0,13.5-1.5,19.7-11.4
				c0.7-1.2,2.3-1.5,3.4-0.8c1.2,0.7,1.5,2.3,0.8,3.4c-7.5,12-22.8,13.6-23.4,13.7C337.6,394.6,337.5,394.6,337.5,394.6z"/>
		</g>
		<g>
			<path style="fill:#5B1F26;" d="M293.5,163c0,0-0.1,0-0.1,0c-1.4-0.1-2.5-1.2-2.4-2.6c1.9-44.3-13.3-93.7-13.4-94.1
				c-0.4-1.3,0.3-2.7,1.6-3.1c1.3-0.4,2.7,0.3,3.1,1.6c0.2,0.5,15.6,50.7,13.6,95.8C295.9,161.9,294.8,163,293.5,163z"/>
		</g>
		<g>
			<path style="fill:#5B1F26;" d="M221.3,173.4C221.3,173.4,221.3,173.4,221.3,173.4c-1.4,0-2.5-1.2-2.5-2.5
				c0-1.9,1.3-46.1,58.6-85.7c1.1-0.8,2.7-0.5,3.5,0.6c0.8,1.1,0.5,2.7-0.6,3.5c-55,38.1-56.5,81.3-56.5,81.7
				C223.8,172.3,222.6,173.4,221.3,173.4z"/>
		</g>
		<g>
			<path style="fill:#5B1F26;" d="M220.2,175.5c-7.1,0-11.6-2.2-11.9-2.3c-1.2-0.6-1.7-2.1-1.1-3.4c0.6-1.2,2.1-1.7,3.3-1.1
				c0.1,0.1,7.8,3.7,18.4,0.5c1.3-0.4,2.7,0.4,3.1,1.7c0.4,1.3-0.4,2.7-1.7,3.1C226.6,175.1,223.2,175.5,220.2,175.5z"/>
		</g>
		<g>
			<path style="fill:#5B1F26;" d="M291.1,164.7c-5.8,0-8.8-3-9-3.2c-1-1-1-2.6,0-3.5c1-1,2.5-1,3.5,0c0.3,0.2,5.3,4.6,15.7-1.7
				c1.2-0.7,2.7-0.3,3.4,0.8c0.7,1.2,0.3,2.7-0.8,3.4C298.8,163.7,294.5,164.7,291.1,164.7z"/>
		</g>
	</g>
</g>
</svg>
