<?xml version="1.0" encoding="utf-8"?>
<!-- Generator: Adobe Illustrator 25.0.0, SVG Export Plug-In . SVG Version: 6.00 Build 0)  -->
<svg version="1.0" id="Layer_1" xmlns="http://www.w3.org/2000/svg" xmlns:xlink="http://www.w3.org/1999/xlink" x="0px" y="0px"
	 viewBox="0 0 512 512" style="enable-background:new 0 0 512 512;" xml:space="preserve">
<g>
	<path style="fill:#F1F2F2;" d="M319,165.8c46.4,0,81.7-56.6,85.5-63.1c2.4-4,2.4-8.9,0-12.9c-2.4-4-6.7-6.3-11.4-6
		c-0.1,0-13.3,0.7-67,0.7c-20.7,0-36.4,5.8-48,13.3c0.6-6.4-2.1-12.9-7.6-17.1l-0.2-0.2c-4.7-3.6-10.6-4.8-16.3-3.5
		c-5.7,1.3-10.5,5.1-13,10.4c-10.2,20.6-11.4,40.7-10.3,54.9c-40.6,6.3-56.8,47.9-68.8,78.7c-1.2,3.1-2.4,6.1-3.5,9
		c-2.5,6.2-9.6,14.8-17.8,24.8c-3,3.7-6.1,7.4-9.4,11.6c-12.3,15.6-25.2,47.7-24.3,72.5c0.8,23.8,12,48.2,30.8,66.9
		c18.8,18.7,43.2,29.8,67,30.4c0.9,0,1.7,0,2.6,0c15.5,0,30.6-3.8,44.2-11c13.6,7.2,28.8,11,44.3,11c0.8,0,1.7,0,2.5,0
		c24.4-0.6,47.4-8.9,64.7-23.2c18.9-15.7,29.3-36.9,30.1-61.1c0.8-23-4.5-63.4-18.6-81.2c-12.3-15.6-24.8-31.6-30.4-41.9
		c-3.5-6.4-6.7-13.6-10.1-21.2c-6.2-13.9-13.2-29.5-23.4-42c2.1,0.1,4.3,0.2,6.5,0.3C317.7,165.8,318.3,165.8,319,165.8z"/>
	<g>
		<g>
			<path style="fill:#C2B59B;" d="M246.8,161.2c0,0-12-33.3,5.3-68.3c2-4,7.1-5.1,10.6-2.4l0.2,0.1c2.9,2.2,3.6,6.3,1.6,9.4
				c-5.4,8.5-13.9,28-8.3,61.2"/>
			<path style="fill:#5B1F26;" d="M246.8,163.7c-1,0-2-0.6-2.4-1.7c-0.5-1.4-12.1-34.7,5.4-70.2c1.3-2.6,3.6-4.4,6.4-5
				c2.8-0.7,5.7,0,8,1.7l0.2,0.2c4,3,4.9,8.5,2.2,12.8c-5.3,8.3-13.4,27.1-7.9,59.4c0.2,1.4-0.7,2.7-2,2.9c-1.4,0.2-2.7-0.7-2.9-2
				c-5.7-33.9,3-54,8.7-62.9c1.3-2,0.9-4.7-1-6.1l-0.2-0.2c-1.1-0.8-2.5-1.1-3.8-0.8c-1.3,0.3-2.4,1.2-3,2.4
				c-16.6,33.6-5.3,66-5.2,66.3c0.5,1.3-0.2,2.7-1.5,3.2C247.3,163.6,247.1,163.7,246.8,163.7z"/>
		</g>
		<g>
			<path style="fill:#AFCC81;" d="M333,234.6c-17.4-31.7-27.2-78.9-69.2-80.6l-12.5,1.9l-12.5-1.9c-42,1.7-55.7,47.1-69.2,80.6
				c-4.3,10.6-15.9,23-28.9,39.5c-11.6,14.7-22.3,43.9-21.6,64.3c1.4,43.2,42.5,84.1,85.7,85.2c17.2,0.4,33.1-4.4,46.5-13
				c13.4,8.6,29.3,13.4,46.5,13c43.2-1.1,81.2-29.1,82.6-72.3c0.7-20.3-4.3-58.4-15.9-73C351.6,261.8,339.1,245.6,333,234.6z"/>
			<path style="fill:#5B1F26;" d="M295.7,426.1c-15.7,0-31-4.3-44.3-12.5c-14,8.6-30,13-46.6,12.5c-44.6-1.1-86.7-42.9-88.1-87.6
				c-0.7-21.8,10.9-51.6,22.2-65.9c3.2-4,6.3-7.8,9.3-11.4c9.1-11.1,16.2-19.8,19.3-27.4c1.2-2.9,2.4-6,3.6-9.1
				c12.4-31.9,27.9-71.5,67.8-73.1c0.2,0,0.3,0,0.5,0l12.1,1.8l12.1-1.8c0.2,0,0.3,0,0.5,0c34.5,1.4,48.4,32.5,60.8,60
				c3.5,7.8,6.8,15.2,10.5,21.9l0,0c6,11,18.8,27.4,31.4,43.3c11.8,14.9,17.1,53,16.4,74.7c-0.7,21.3-9.9,39.9-26.5,53.8
				c-15.5,12.9-36.3,20.4-58.5,20.9C297.2,426.1,296.5,426.1,295.7,426.1z M251.4,408.1c0.5,0,0.9,0.1,1.4,0.4
				c13.5,8.6,29,13,45.1,12.6c38.7-1,78.7-25.3,80.2-69.9c0.7-20.4-4.4-57.6-15.3-71.4c-12.7-16.1-25.6-32.7-31.8-44
				c-3.8-6.9-7.3-14.7-10.7-22.3c-12.3-27.4-25-55.6-56.2-57l-12.2,1.8c-0.2,0-0.5,0-0.7,0l-12.2-1.8c-36.5,1.6-50.6,37.9-63.1,69.9
				c-1.2,3.1-2.4,6.2-3.6,9.1c-3.4,8.4-10.7,17.4-20.1,28.7c-3,3.6-6,7.4-9.2,11.4c-10.7,13.6-21.8,42-21.1,62.6
				c1.4,42.2,41.1,81.7,83.3,82.8c16,0.4,31.6-3.9,45.1-12.6C250.5,408.2,250.9,408.1,251.4,408.1z"/>
		</g>
		<g>
			<path style="fill:#669D1D;" d="M256.9,143.9c0,0,13.7-46.9,69.2-46.9s67.8-0.7,67.8-0.7s-35,58.5-76.4,57
				C277.8,151.8,264.8,141,256.9,143.9z"/>
			<path style="fill:#5B1F26;" d="M319,155.8c-0.6,0-1.1,0-1.7,0c-23.3-0.8-37.5-4.9-46.9-7.6c-6.1-1.7-10.1-2.9-12.7-2
				c-0.9,0.3-1.9,0.1-2.6-0.5c-0.7-0.6-1-1.6-0.7-2.5c0.1-0.5,3.7-12.4,14.3-24.4c9.8-11.1,27.7-24.3,57.3-24.3
				c54.7,0,67.5-0.7,67.6-0.7c0.9-0.1,1.8,0.4,2.3,1.2c0.5,0.8,0.5,1.8,0,2.6C394.5,100,360.6,155.8,319,155.8z M260.6,140.9
				c3,0.2,6.6,1.2,11.1,2.5c9.2,2.6,23,6.6,45.7,7.4c33.2,1.2,62.9-38.8,71.6-51.8c-7.5,0.2-25.2,0.5-63.1,0.5
				c-22.2,0-40.2,7.5-53.4,22.4C266.2,129.3,262.4,136.6,260.6,140.9z"/>
		</g>
		<g>
			<path style="fill:#5B1F26;" d="M254.6,148.1c-0.5,0-1-0.2-1.5-0.5c-1.1-0.8-1.3-2.4-0.5-3.5c1-1.3,25.1-33,74.1-33.3
				c0.3,0,23.9-0.1,40.6-6.8c1.3-0.5,2.7,0.1,3.3,1.4c0.5,1.3-0.1,2.7-1.4,3.3c-17.6,7.1-41.4,7.2-42.4,7.2
				c-46.4,0.3-69.8,30.9-70.1,31.2C256.2,147.7,255.4,148.1,254.6,148.1z"/>
		</g>
		<g>
			<path style="fill:#5B1F26;" d="M295.7,409.8c-12,0-19.6-3.1-20.1-3.3c-1.3-0.5-1.9-2-1.3-3.3c0.5-1.3,2-1.9,3.3-1.3l0,0
				c0.2,0.1,17,6.8,39.6-0.6c1.3-0.4,2.7,0.3,3.2,1.6c0.4,1.3-0.3,2.7-1.6,3.2C310.1,408.9,302.2,409.8,295.7,409.8z"/>
		</g>
		<g>
			<path style="fill:#5B1F26;" d="M167.4,274.4c-0.7,0-1.4-0.3-1.9-0.8c-0.9-1-0.8-2.6,0.2-3.5c0.1-0.1,9.4-8.7,18.7-28.4
				c0.6-1.2,2.1-1.8,3.3-1.2c1.2,0.6,1.8,2.1,1.2,3.3c-9.8,20.8-19.4,29.6-19.8,30C168.6,274.2,168,274.4,167.4,274.4z"/>
		</g>
		<g>
			<path style="fill:#5B1F26;" d="M250.9,167.2c-6.6,0-11-2.7-11.3-2.9c-1.2-0.7-1.5-2.3-0.8-3.4c0.7-1.2,2.3-1.5,3.4-0.8
				c0.3,0.2,8.1,4.7,17.8-0.1c1.2-0.6,2.7-0.1,3.4,1.1c0.6,1.2,0.1,2.7-1.1,3.4C258.1,166.5,254.3,167.2,250.9,167.2z"/>
		</g>
		<g>
			<path style="fill:#5B1F26;" d="M345.3,299.7c-0.7,0-1.4-0.3-1.9-0.9c-8.5-9.9-15.4-25-15.7-25.6c-0.6-1.3,0-2.7,1.2-3.3
				c1.3-0.6,2.7,0,3.3,1.2c0.1,0.2,6.9,15.1,14.9,24.5c0.9,1,0.8,2.6-0.3,3.5C346.5,299.5,345.9,299.7,345.3,299.7z"/>
		</g>
	</g>
</g>
</svg>
