<?xml version="1.0" encoding="utf-8"?>
<!-- Generator: Adobe Illustrator 25.0.0, SVG Export Plug-In . SVG Version: 6.00 Build 0)  -->
<svg version="1.0" id="Layer_1" xmlns="http://www.w3.org/2000/svg" xmlns:xlink="http://www.w3.org/1999/xlink" x="0px" y="0px"
	 viewBox="0 0 512 512" style="enable-background:new 0 0 512 512;" xml:space="preserve">
<g>
	<path style="fill:#F1F2F2;" d="M372.1,191.2c-3.2-3.2-6.6-6.2-10.4-8.9c6-3.1,10.5-6.6,13.5-10.7c5.4-7.3,6-16.1,1.6-24.1
		c-2.5-4.6-6.8-9.5-14.1-12.7c5.1-5.1,8.2-10.5,9.4-16.1c1.5-6.8,0.8-17.1-10.7-27c-8.9-7.7-19.7-11.1-31.1-9.7
		c-11.2,1.4-21.9,7.1-31.2,14.2c-0.8-6.6-2.7-12-5.9-16.4c-3.7-5.1-10.7-11.1-23.2-10.7c-18.4,0.4-31.7,15-38.1,40.8
		c-11.6-12.3-23-19.5-34.2-21.5c-10.1-1.8-19.7,0.7-27.9,7.2c-13.6,10.9-15.9,23.2-15.5,31.7c0.7,13.8,9.3,26.9,19.2,37.6
		c-9.8,3.6-18.5,8.4-26,14.3c-20.4,16.1-31,39.7-31.6,70.3c-1.3,64.6,21.4,108.4,40.6,133.8c22.7,30.1,54.1,51.8,84.1,58.1
		c4.3,0.9,8.8,1.4,13.3,1.4c18.4,0,38.4-7.3,57.7-21.2c20.4-14.6,38.7-35.6,52.9-60.6c15.8-27.8,25.8-58.9,29.7-92.4
		C398.1,236.1,390.7,210.1,372.1,191.2z"/>
	<g>
		<g>
			<path style="fill:#2BB673;" d="M208.4,177.9c0,0-67.1-43.3-30.7-72.5c27.9-22.3,62.7,36.2,62.7,36.2s0.7-59.2,30-59.9
				s11.1,50.9,11.1,50.9s41.1-57.8,71.8-31.4s-50.9,50.9-50.9,50.9s51.6-20.2,63.4,1.4s-56.4,34.1-96.9,25.8"/>
			<path style="fill:#5B1F26;" d="M297.6,184.4c-10.4,0-20.5-0.9-29.2-2.7c-1.4-0.3-2.2-1.6-1.9-3s1.6-2.2,3-1.9
				c33,6.8,83.8-0.9,93.6-14.2c1.9-2.6,2.1-5.1,0.5-7.9c-7.2-13-33.1-8.7-50.1-3.7c-5.8,2.1-9.8,3.3-10.4,3.5
				c-1.3,0.4-2.6-0.3-3.1-1.6c-0.4-1.3,0.2-2.7,1.5-3.1c0.6-0.2,4.6-1.8,10.4-3.5c17.2-6.3,42.9-18.3,45.6-30.7
				c0.9-4.2-1-8.3-5.8-12.5c-5.8-5-12.2-7-19.5-6.1c-24.1,2.9-48.4,36.7-48.6,37c-0.7,1-2.1,1.3-3.2,0.8c-1.1-0.6-1.6-1.9-1.2-3
				c3-8.6,9.2-33,2-43c-2.3-3.2-5.8-4.7-10.7-4.5c-26.5,0.6-27.5,56.9-27.5,57.5c0,1.1-0.8,2.1-1.9,2.4s-2.2-0.2-2.8-1.1
				c-0.2-0.4-21.6-35.8-43.1-39.7c-5.8-1.1-11,0.3-15.9,4.2c-7,5.6-10.3,11.9-9.9,19.2c1.2,23.7,39.9,49,40.3,49.2
				c1.2,0.7,1.5,2.3,0.7,3.5c-0.7,1.2-2.3,1.5-3.5,0.7c-1.7-1.1-41.3-26.9-42.6-53.1c-0.5-8.9,3.5-16.8,11.8-23.4
				c6-4.8,12.6-6.5,19.9-5.2c17.9,3.2,34.7,24.6,42.3,35.6c1.3-16.7,7.1-54,32-54.6c6.6-0.1,11.6,2.1,14.9,6.6
				c6.4,8.8,4.5,24.7,2,35.7c9.5-10.9,26.6-27.3,44.4-29.5c8.7-1,16.5,1.4,23.3,7.3c6.2,5.4,8.7,11.2,7.4,17.3
				c-2.1,9.7-14,18.2-26.7,24.8c13.3-1.3,26.7,0.5,32.3,10.9c2.5,4.6,2.2,9.2-0.9,13.3C358.3,177.7,326.8,184.4,297.6,184.4z"/>
		</g>
		<g>
			<path style="fill:#F43442;" d="M269,173.1c0,0-138.4-30.6-140.5,76.7s65.3,169,114.8,179.5s126.1-55.5,138.6-162.1
				C394.4,160.5,269,173.1,269,173.1z"/>
			<path style="fill:#5B1F26;" d="M254,432.8c-3.9,0-7.6-0.4-11.3-1.1c-27.7-5.8-56.9-26.2-78.2-54.4
				c-18.3-24.2-39.8-65.9-38.6-127.6c0.5-27.4,9.9-48.5,27.8-62.6c40.2-31.6,108.9-18,115.3-16.6c5.9-0.5,63.9-4.8,95.9,27.7
				c16.3,16.6,22.8,39.9,19.4,69.2c-3.8,32.2-13.4,62-28.5,88.7c-13.5,23.8-30.8,43.6-50,57.4C288.2,426.2,270.2,432.8,254,432.8z
				 M227.4,171.6c-22.9,0-50.8,3.9-70.6,19.5c-16.7,13.1-25.4,32.9-25.9,58.8c-1.2,60.3,19.8,101,37.5,124.5
				c20.6,27.3,48.7,46.9,75.2,52.5c17.5,3.7,38.5-2.5,59.2-17.4c40.8-29.3,69.4-82.6,76.4-142.6c3.3-27.7-2.8-49.6-18-65.1
				c-31.3-31.9-91.6-26.3-92.2-26.2c-0.3,0-0.5,0-0.8,0C268.1,175.4,250.2,171.6,227.4,171.6z"/>
		</g>
		<g>
			<ellipse style="fill:#F1F2F2;" cx="182.6" cy="214.5" rx="6.3" ry="10.1"/>
			<path style="fill:#5B1F26;" d="M182.6,227.1c-4.9,0-8.8-5.5-8.8-12.6s3.9-12.6,8.8-12.6s8.8,5.5,8.8,12.6
				S187.5,227.1,182.6,227.1z M182.6,206.9c-1.7,0-3.8,3.3-3.8,7.6s2,7.6,3.8,7.6s3.8-3.3,3.8-7.6S184.3,206.9,182.6,206.9z"/>
		</g>
		<g>
			<ellipse style="fill:#F1F2F2;" cx="299.7" cy="228.8" rx="6.3" ry="10.1"/>
			<path style="fill:#5B1F26;" d="M299.7,241.4c-4.9,0-8.8-5.5-8.8-12.6c0-7.1,3.9-12.6,8.8-12.6s8.8,5.5,8.8,12.6
				C308.4,235.9,304.6,241.4,299.7,241.4z M299.7,221.2c-1.7,0-3.8,3.3-3.8,7.6s2,7.6,3.8,7.6s3.8-3.3,3.8-7.6
				S301.4,221.2,299.7,221.2z"/>
		</g>
		<g>
			
				<ellipse transform="matrix(0.3467 -0.938 0.938 0.3467 -58.1746 507.8571)" style="fill:#F1F2F2;" cx="335.5" cy="295.7" rx="10.1" ry="6.3"/>
			<path style="fill:#5B1F26;" d="M333.4,307.9c-0.8,0-1.5-0.1-2.3-0.4c-4.6-1.7-6.3-8.2-3.9-14.9c1.1-3,2.9-5.5,5-7.2
				c2.4-1.9,5.2-2.5,7.6-1.6c4.6,1.7,6.3,8.2,3.9,14.9c-1.1,3-2.9,5.5-5,7.2C337,307.2,335.2,307.9,333.4,307.9z M337.6,288.5
				c-0.6,0-1.4,0.3-2.2,1c-1.4,1.1-2.6,2.9-3.4,5c-1.5,4-0.7,7.8,0.9,8.4c0.7,0.3,1.7,0,2.8-0.9c1.4-1.1,2.6-2.9,3.4-5c0,0,0,0,0,0
				c1.5-4,0.7-7.8-0.9-8.4C338,288.5,337.8,288.5,337.6,288.5z"/>
		</g>
		<g>
			
				<ellipse transform="matrix(0.1931 -0.9812 0.9812 0.1931 -29.5052 516.9)" style="fill:#F1F2F2;" cx="299.5" cy="276.4" rx="10.1" ry="6.3"/>
			<path style="fill:#5B1F26;" d="M298.3,288.9c-0.4,0-0.8,0-1.2-0.1c-4.8-1-7.5-7.1-6.2-14.1c1.4-6.9,6.2-11.6,11-10.7
				c4.8,1,7.5,7.1,6.2,14.1c0,0,0,0,0,0C306.9,284.4,302.7,288.9,298.3,288.9z M300.7,268.9c-1.7,0-4.1,2.8-4.9,6.8
				c-0.8,4.2,0.5,7.9,2.2,8.2c1.7,0.3,4.3-2.5,5.2-6.7l0,0c0.8-4.2-0.5-7.9-2.2-8.2C300.9,268.9,300.8,268.9,300.7,268.9z
				 M305.7,277.6L305.7,277.6L305.7,277.6z"/>
		</g>
		<g>
			
				<ellipse transform="matrix(0.1931 -0.9812 0.9812 0.1931 -173.1679 580.1262)" style="fill:#F1F2F2;" cx="266.1" cy="395.3" rx="10.1" ry="6.3"/>
			<path style="fill:#5B1F26;" d="M264.9,407.8c-0.4,0-0.8,0-1.2-0.1c-2.5-0.5-4.5-2.4-5.6-5.3c-1-2.5-1.1-5.6-0.5-8.7
				c0.6-3.1,2-5.9,3.8-7.9c2.1-2.3,4.7-3.3,7.2-2.8c2.5,0.5,4.5,2.4,5.6,5.3c1,2.5,1.1,5.6,0.5,8.7l0,0c-0.6,3.1-2,5.9-3.8,7.9
				C269.2,406.8,267,407.8,264.9,407.8z M267.3,387.9c-0.7,0-1.5,0.5-2.3,1.3c-1.2,1.3-2.1,3.3-2.6,5.4c-0.4,2.2-0.3,4.4,0.3,6
				c0.5,1.2,1.2,2,1.9,2.2c0.8,0.1,1.7-0.3,2.6-1.3c1.2-1.3,2.1-3.3,2.6-5.4l0,0c0.4-2.2,0.3-4.4-0.3-6c-0.5-1.2-1.2-2-1.9-2.2
				C267.5,387.9,267.4,387.9,267.3,387.9z"/>
		</g>
		<g>
			
				<ellipse transform="matrix(0.9835 -0.1807 0.1807 0.9835 -44.9151 42.1326)" style="fill:#F1F2F2;" cx="208.7" cy="267.5" rx="6.3" ry="10.1"/>
			<path style="fill:#5B1F26;" d="M209.8,280c-2.1,0-4.3-1.1-6-3c-1.8-2-3.1-4.8-3.7-7.9s-0.3-6.2,0.6-8.7c1.1-2.9,3.2-4.8,5.7-5.3
				c4.8-0.9,9.6,3.9,10.9,10.8c0.6,3.1,0.3,6.2-0.6,8.7c-1.1,2.9-3.2,4.8-5.7,5.3C210.6,280,210.2,280,209.8,280z M207.6,260
				c-0.1,0-0.2,0-0.3,0c-0.8,0.1-1.5,0.9-2,2.2c-0.6,1.6-0.8,3.8-0.4,6c0.4,2.2,1.3,4.2,2.5,5.5c0.9,1,1.8,1.5,2.6,1.3
				c0.8-0.1,1.5-0.9,2-2.2c0.6-1.6,0.8-3.8,0.4-6l0,0C211.7,262.8,209.3,260,207.6,260z"/>
		</g>
		<g>
			
				<ellipse transform="matrix(0.9807 -0.1954 0.1954 0.9807 -50.2169 35.8036)" style="fill:#F1F2F2;" cx="156.3" cy="272.4" rx="6.3" ry="10.1"/>
			<path style="fill:#5B1F26;" d="M157.5,284.9c-4.4,0-8.5-4.4-9.8-10.8c-1.4-6.9,1.3-13.1,6.1-14.1c4.8-1,9.7,3.7,11.1,10.6l0,0
				c1.4,6.9-1.3,13.1-6.1,14.1C158.4,284.8,157.9,284.9,157.5,284.9z M155.1,264.9c-0.1,0-0.2,0-0.3,0c-1.7,0.3-3,4-2.2,8.2
				c0.8,4.2,3.5,7.1,5.2,6.7c1.7-0.3,3-4,2.2-8.2l0,0C159.2,267.7,156.8,264.9,155.1,264.9z"/>
		</g>
		<g>
			<ellipse style="fill:#F1F2F2;" cx="255.1" cy="303" rx="6.3" ry="10.1"/>
			<path style="fill:#5B1F26;" d="M255.1,315.6c-4.9,0-8.8-5.5-8.8-12.6s3.9-12.6,8.8-12.6c4.9,0,8.8,5.5,8.8,12.6
				S260,315.6,255.1,315.6z M255.1,295.4c-1.7,0-3.8,3.3-3.8,7.6s2,7.6,3.8,7.6s3.8-3.3,3.8-7.6S256.8,295.4,255.1,295.4z"/>
		</g>
		<g>
			<ellipse style="fill:#F1F2F2;" cx="249.5" cy="213.1" rx="6.3" ry="10.1"/>
			<path style="fill:#5B1F26;" d="M249.5,225.7c-4.9,0-8.8-5.5-8.8-12.6s3.9-12.6,8.8-12.6s8.8,5.5,8.8,12.6
				S254.4,225.7,249.5,225.7z M249.5,205.5c-1.7,0-3.8,3.3-3.8,7.6s2,7.6,3.8,7.6s3.8-3.3,3.8-7.6S251.2,205.5,249.5,205.5z"/>
		</g>
		<g>
			<ellipse style="fill:#F1F2F2;" cx="354.7" cy="234.7" rx="6.3" ry="10.1"/>
			<path style="fill:#5B1F26;" d="M354.7,247.3c-4.9,0-8.8-5.5-8.8-12.6s3.9-12.6,8.8-12.6s8.8,5.5,8.8,12.6
				S359.6,247.3,354.7,247.3z M354.7,227.1c-1.7,0-3.8,3.3-3.8,7.6s2,7.6,3.8,7.6s3.8-3.3,3.8-7.6S356.4,227.1,354.7,227.1z"/>
		</g>
		<g>
			
				<ellipse transform="matrix(0.2894 -0.9572 0.9572 0.2894 -131.8401 547.3182)" style="fill:#F1F2F2;" cx="302.7" cy="362.5" rx="10.1" ry="6.3"/>
			<path style="fill:#5B1F26;" d="M301,374.8c-0.6,0-1.3-0.1-1.9-0.3c-2.4-0.7-4.3-2.9-5.1-5.9c-0.7-2.6-0.6-5.7,0.3-8.7
				c2-6.8,7.3-10.9,12-9.5c4.7,1.4,6.8,7.8,4.7,14.6c-0.9,3-2.5,5.7-4.6,7.5C304.8,374,302.8,374.8,301,374.8z M304.5,355.1
				c-1.7,0-4.2,2.5-5.4,6.2c-0.6,2.1-0.7,4.3-0.3,6c0.3,1.3,1,2.1,1.7,2.4c0.7,0.2,1.7-0.2,2.7-1c1.3-1.2,2.4-3,3.1-5.2l0,0
				c1.2-4.1,0.3-7.9-1.4-8.4C304.8,355.1,304.6,355.1,304.5,355.1z"/>
		</g>
		<g>
			
				<ellipse transform="matrix(0.9215 -0.3884 0.3884 0.9215 -112.2913 95.3034)" style="fill:#F1F2F2;" cx="179.6" cy="325.4" rx="6.3" ry="10.1"/>
			<path style="fill:#5B1F26;" d="M181.9,337.5c-1.7,0-3.4-0.6-5.1-1.8c-2.2-1.6-4.1-4-5.3-6.9c-2.7-6.5-1.3-13.1,3.2-15
				c4.5-1.9,10.2,1.7,13,8.2c1.2,2.9,1.7,6,1.2,8.7c-0.5,3.1-2.1,5.4-4.4,6.4C183.7,337.4,182.8,337.5,181.9,337.5z M177.3,318.3
				c-0.2,0-0.4,0-0.6,0.1c-1.6,0.7-2.2,4.5-0.5,8.5c0.9,2,2.2,3.8,3.6,4.8c1.1,0.8,2.1,1,2.8,0.7c0.7-0.3,1.2-1.2,1.4-2.5
				c0.3-1.7-0.1-3.9-0.9-5.9l0,0C181.6,320.5,179,318.3,177.3,318.3z"/>
		</g>
		<g>
			<ellipse style="fill:#F1F2F2;" cx="244.2" cy="350.6" rx="6.3" ry="10.1"/>
			<path style="fill:#5B1F26;" d="M244.2,363.2c-4.9,0-8.8-5.5-8.8-12.6s3.9-12.6,8.8-12.6s8.8,5.5,8.8,12.6
				S249.1,363.2,244.2,363.2z M244.2,343c-1.7,0-3.8,3.3-3.8,7.6s2,7.6,3.8,7.6s3.8-3.3,3.8-7.6S246,343,244.2,343z"/>
		</g>
		<g>
			
				<ellipse transform="matrix(0.9683 -0.2499 0.2499 0.9683 -87.3183 65.4437)" style="fill:#F1F2F2;" cx="214" cy="376.5" rx="6.3" ry="10.1"/>
			<path style="fill:#5B1F26;" d="M215.6,389c-4.3,0-8.5-4.1-10-10.2c-0.8-3.1-0.8-6.2,0-8.7c0.9-3,2.9-5,5.3-5.6
				c2.5-0.6,5.1,0.2,7.4,2.4c2,1.9,3.5,4.6,4.3,7.6c1.8,6.8-0.6,13.2-5.3,14.4C216.6,388.9,216.1,389,215.6,389z M212.5,369.1
				c-0.1,0-0.3,0-0.4,0c-0.7,0.2-1.4,1-1.8,2.3c-0.5,1.7-0.5,3.9,0,6c1.1,4.1,3.9,6.9,5.6,6.4c1.7-0.4,2.8-4.2,1.8-8.3
				c-0.6-2.1-1.6-4.1-2.9-5.3C214,369.6,213.2,369.1,212.5,369.1z"/>
		</g>
		<g>
			<path style="fill:#5B1F26;" d="M210.5,133.7c-0.6,0-1.3-0.2-1.8-0.7c-9.6-9.6-19-9.7-19.1-9.7c-1.4,0-2.5-1.1-2.5-2.5
				s1.1-2.5,2.5-2.5c0.5,0,11.6,0.1,22.7,11.2c1,1,1,2.6,0,3.5C211.7,133.5,211.1,133.7,210.5,133.7z"/>
		</g>
		<g>
			<path style="fill:#5B1F26;" d="M292,147.7c-0.7,0-1.5-0.3-2-1c-0.9-1.1-0.7-2.7,0.4-3.5l9.8-7.7c1.1-0.9,2.7-0.7,3.5,0.4
				s0.7,2.7-0.4,3.5l-9.8,7.7C293.1,147.5,292.5,147.7,292,147.7z"/>
		</g>
		<g>
			<path style="fill:#5B1F26;" d="M257.8,110c-0.4,0-0.8-0.1-1.2-0.3c-1.2-0.7-1.7-2.2-1-3.4c0.2-0.3,4.5-8.2,10.5-12.6
				c1.1-0.8,2.7-0.6,3.5,0.5c0.8,1.1,0.6,2.7-0.5,3.5c-5.1,3.8-9,11-9.1,11C259.6,109.6,258.7,110,257.8,110z"/>
		</g>
		<g>
			<path style="fill:#5B1F26;" d="M245.1,159c-1.1,0-2.1-0.8-2.4-1.9c-4.6-18.9-17.1-31.5-17.2-31.7c-1-1-1-2.6,0-3.5
				c1-1,2.6-1,3.5,0c0.6,0.6,13.6,13.8,18.5,34c0.3,1.3-0.5,2.7-1.8,3C245.5,159,245.3,159,245.1,159z"/>
		</g>
		<g>
			<path style="fill:#5B1F26;" d="M275,150.3c-0.3,0-0.6-0.1-0.9-0.2c-1.3-0.5-1.9-2-1.4-3.3l8.7-21.2c0.5-1.3,2-1.9,3.3-1.4
				c1.3,0.5,1.9,2,1.4,3.3l-8.7,21.2C277,149.8,276,150.3,275,150.3z"/>
		</g>
		<g>
			<path style="fill:#5B1F26;" d="M344.3,340c-0.3,0-0.7-0.1-1-0.2c-1.3-0.5-1.8-2-1.3-3.3c2.3-5.4,4.3-10.9,5.8-16.5
				c0.4-1.3,1.7-2.1,3.1-1.8c1.3,0.4,2.1,1.7,1.8,3.1c-1.6,5.8-3.6,11.6-6.1,17.2C346.2,339.4,345.3,340,344.3,340z"/>
		</g>
		<g>
			<path style="fill:#5B1F26;" d="M159.3,205.3c-0.5,0-1-0.1-1.4-0.4c-1.1-0.8-1.5-2.3-0.7-3.5c0.2-0.3,5.7-8.4,16.1-13.3
				c1.2-0.6,2.7-0.1,3.3,1.2c0.6,1.2,0.1,2.7-1.2,3.3c-9.1,4.4-14,11.5-14.1,11.6C160.9,204.9,160.1,205.3,159.3,205.3z"/>
		</g>
	</g>
</g>
</svg>
