<?xml version="1.0" encoding="utf-8"?>
<!-- Generator: Adobe Illustrator 25.0.0, SVG Export Plug-In . SVG Version: 6.00 Build 0)  -->
<svg version="1.0" id="Layer_1" xmlns="http://www.w3.org/2000/svg" xmlns:xlink="http://www.w3.org/1999/xlink" x="0px" y="0px"
	 viewBox="0 0 512 512" style="enable-background:new 0 0 512 512;" xml:space="preserve">
<g>
	<path style="fill:#F1F2F2;" d="M427.6,298.4c-1.5-1.6-37.2-38.6-76.7-83.5c-5.9-6.7-12.1-14.9-18.2-22.8
		c-6.7-8.8-13.7-18-20.7-25.7C250.3,98,238,89.3,231.3,86.5c-5.5-2.3-11.5-2.1-16.9,0.6c-12.8,6.3-19.7,25.7-22.3,34.7
		c-15.6,31.3-41.5,83.9-43.8,94.1c-2.1,7.1-30.6,68.6-65,140.4c-2,4.1-1.5,9,1.1,12.7c1.4,1.9,14.5,19.4,45.1,34.7
		c20.3,10.1,54.9,22.2,105.2,22.2c14.2,0,29-1,44.1-2.8c74.3-9.3,111.6-39.3,129.8-62.9c20.1-26,22.2-49.6,22.4-52.2
		C431.3,304.4,430,300.9,427.6,298.4z"/>
	<path style="fill:#EF4136;" d="M204,126.3c0,0-39.3,83.5-43.3,92.3c-8.9,19.5-65.9,143.1-65.9,143.1s47.1,65.9,182.6,49
		S418.6,307,418.6,307s-36.4-37.7-77.1-83.9c-12.9-14.6-25.9-34.2-38.7-48.4c-37.5-41.5-67.7-73.2-76.3-76.7
		C213.1,92.5,204,126.3,204,126.3z"/>
	<path style="fill:#31BA75;" d="M116.5,320.5c0,0,35.7,40.5,146.4,36.9c0,0,73.8-3,127-81.1l29,31.5c0,0-1.2,64.7-102.2,95
		c0,0-87.1,24.2-163.9-3.6c0,0-42.3-13.3-58.7-39.9"/>
	<path style="fill:#98E5BD;" d="M264.7,374.4c0,0,77.9-3.2,137.9-82.8l-11.7-12.7c-53.2,78-127,81.1-127,81.1
		c-110.7,3.6-149-38.4-149-38.4l-7.4,18.8C125.7,353.5,172.2,377.5,264.7,374.4z"/>
	<g>
		<path style="fill:#5B1F26;" d="M234.8,415.9c-47.1,0-80-10.8-100.7-21.1c-28.9-14.5-40.9-30.9-41.4-31.6c-0.5-0.7-0.6-1.7-0.2-2.5
			c0.6-1.2,57.1-124.2,65.9-143.1c4-8.5,42.2-89.9,43.3-92.2c1.2-2.9,11.3-26,20.5-29.6c1.9-0.7,3.7-0.7,5.4,0.1
			c8.3,3.8,31.1,29.1,65.5,67.3l7.1,7.8c7.1,7.8,15.6,18,23.8,27.8c7,8.4,13.6,16.2,19.4,22.8c40.2,45.6,76.6,83.4,77,83.8
			c0.5,0.5,0.7,1.2,0.7,1.9c-0.1,0.9-1.7,22.7-20.3,46.8c-17,22.1-52.2,50.2-123.1,59.1C262.3,415,248,415.9,234.8,415.9z
			 M97.7,361.3c3.2,3.9,15.3,17.3,39,29.1c25.9,12.9,71.2,26.4,140.4,17.7c69.2-8.6,103.3-35.9,119.8-57.2
			c15.4-20,18.6-38.5,19.1-43c-5.6-5.8-39.4-41.2-76.3-83.1c-5.9-6.7-12.8-14.9-19.5-22.9c-8.2-9.8-16.7-19.9-23.7-27.6l-7.1-7.8
			c-32.8-36.4-56.5-62.7-63.9-66.1c-0.3-0.1-0.7-0.2-1.5,0.1c-5.5,2.1-13.8,17.6-17.8,26.9c0,0,0,0.1,0,0.1
			c-0.4,0.8-39.3,83.7-43.3,92.3C154.6,237.4,104,347.6,97.7,361.3z M204,126.3L204,126.3L204,126.3z"/>
	</g>
	<g>
		<path style="fill:#5B1F26;" d="M246.4,361.6c-20.5,0-40.9-3.2-60.8-7.2c-37.7-7.6-70.3-30.3-71.7-31.3c-1.1-0.8-1.4-2.4-0.6-3.5
			c0.8-1.1,2.4-1.4,3.5-0.6c0.3,0.2,33.2,23.1,69.8,30.4c44.6,9,91.9,13.6,135.5-13c45.4-27.7,64.9-59.9,65.1-60.2
			c0.7-1.2,2.2-1.6,3.4-0.9c1.2,0.7,1.6,2.2,0.9,3.4c-0.8,1.4-20.2,33.5-66.8,62C299.3,356.3,272.8,361.6,246.4,361.6z"/>
	</g>
	
		<ellipse transform="matrix(0.233 -0.9725 0.9725 0.233 -134.7027 367.19)" style="fill:#5B1F26;" cx="165.4" cy="269" rx="8" ry="3.4"/>
	
		<ellipse transform="matrix(0.8287 -0.5597 0.5597 0.8287 -87.5511 215.4233)" style="fill:#5B1F26;" cx="308.1" cy="250.7" rx="3.4" ry="8"/>
	
		<ellipse transform="matrix(0.866 -0.5 0.5 0.866 -59.5683 161.234)" style="fill:#5B1F26;" cx="271.1" cy="191.8" rx="3.4" ry="8"/>
	
		<ellipse transform="matrix(0.9198 -0.3923 0.3923 0.9198 -102.4273 135.882)" style="fill:#5B1F26;" cx="281.3" cy="318.6" rx="3.4" ry="8"/>
	
		<ellipse transform="matrix(0.9198 -0.3923 0.3923 0.9198 -95.9314 150.9738)" style="fill:#5B1F26;" cx="321.4" cy="310.2" rx="3.4" ry="8"/>
	
		<ellipse transform="matrix(0.233 -0.9725 0.9725 0.233 -160.4481 436.083)" style="fill:#5B1F26;" cx="196.2" cy="319.8" rx="8" ry="3.4"/>
	
		<ellipse transform="matrix(9.053575e-02 -0.9959 0.9959 9.053575e-02 -23.4838 416.0621)" style="fill:#5B1F26;" cx="216.1" cy="220.9" rx="8" ry="3.4"/>
	
		<ellipse transform="matrix(9.053575e-02 -0.9959 0.9959 9.053575e-02 57.6092 352.038)" style="fill:#5B1F26;" cx="221.6" cy="144.5" rx="7.2" ry="3.1"/>
	<g>
		<path style="fill:#5B1F26;" d="M158.7,372.9c-0.1,0-0.3,0-0.4,0c-21.4-3.8-36.7-14.7-37.4-15.2c-1.1-0.8-1.4-2.4-0.6-3.5
			c0.8-1.1,2.4-1.4,3.5-0.6c0.1,0.1,15,10.7,35.3,14.3c1.4,0.2,2.3,1.5,2,2.9C161,372,159.9,372.9,158.7,372.9z"/>
	</g>
	<g>
		<path style="fill:#5B1F26;" d="M345.3,370.8c-0.9,0-1.8-0.5-2.2-1.3c-0.6-1.2-0.2-2.7,1-3.4c34.3-18.1,46.2-39.8,46.3-40
			c0.7-1.2,2.2-1.7,3.4-1c1.2,0.6,1.7,2.2,1,3.4c-0.5,0.9-12.6,23.2-48.3,42.1C346.1,370.7,345.7,370.8,345.3,370.8z"/>
	</g>
</g>
</svg>
