<svg width="100" height="22" viewBox="0 0 100 22" fill="none" xmlns="http://www.w3.org/2000/svg">
<path d="M68.2181 14.2118C68.4468 14.9895 68.3874 15.8237 68.0507 16.5611C67.7141 17.2986 67.1228 17.8898 66.3855 18.2262C65.9643 18.412 65.5083 18.5063 65.0479 18.5028C64.5258 18.5016 64.0107 18.3827 63.5409 18.1549L63.1575 21.7233C63.9852 21.9034 64.8295 21.9961 65.6766 21.9999C67.9981 21.9999 69.7816 21.2654 71.027 19.7964C72.2725 18.3274 72.9012 16.1893 72.9131 13.3821V4.3584H67.8435V10.5229C67.8737 11.1752 67.6923 11.8198 67.3263 12.3606C67.1782 12.5784 66.9786 12.7563 66.7452 12.8784C66.5119 13.0006 66.2521 13.0633 65.9887 13.0609C65.7539 13.0727 65.5194 13.0301 65.3037 12.9365C65.0879 12.8429 64.8967 12.7008 64.7448 12.5212C64.4366 12.1366 64.2782 11.6532 64.2989 11.1607V4.36286H59.2383V10.4069C59.2383 12.3517 59.6841 13.8906 60.5536 14.9923C60.9846 15.5414 61.5415 15.9785 62.1771 16.2665C62.8128 16.5546 63.5085 16.6852 64.2053 16.6472C65.0396 16.6822 65.8657 16.4697 66.5797 16.0364C67.2937 15.603 67.8637 14.9682 68.2181 14.2118Z" fill="white"/>
<path d="M14.9996 15.9075C14.0195 15.3622 13.2138 14.5504 12.6756 13.566C12.1375 12.5816 11.889 11.465 11.9588 10.3452C11.9811 9.21647 12.3236 8.11735 12.9465 7.17596C13.5693 6.23458 14.4468 5.48971 15.4767 5.02821C16.5402 4.54653 17.704 4.32776 18.8697 4.39035C19.9394 4.40251 20.9828 4.72311 21.8749 5.31369C22.6793 5.85189 23.3012 6.62188 23.6584 7.52166C24.0453 8.4838 24.2158 9.51936 24.1577 10.5548C24.1506 10.7668 24.1222 10.9775 24.073 11.1838L16.8544 11.8305C16.9861 12.3468 17.3037 12.7963 17.7462 13.0929C18.2632 13.3809 18.8443 13.5343 19.436 13.5389C20.662 13.565 21.879 13.3246 23.0029 12.8342L23.4488 16.1082C21.8755 16.7146 20.1924 16.9836 18.5086 16.8977C17.2792 16.8371 16.0795 16.4986 14.9996 15.9075ZM20.5061 8.92227C20.2965 7.89188 19.708 7.36554 18.7449 7.32093C18.4822 7.3026 18.2189 7.34727 17.977 7.45123C17.735 7.55519 17.5214 7.71544 17.3538 7.91865C16.9801 8.3944 16.7691 8.97764 16.7519 9.58243L20.5061 8.92227Z" fill="white"/>
<path d="M25.9141 4.69557H30.9791V6.80095C31.3009 6.04003 31.8495 5.39695 32.5501 4.95949C33.2507 4.52203 34.0692 4.31148 34.8938 4.35657C35.9383 4.34731 36.9647 4.62836 37.8589 5.16839C38.7592 5.70499 39.4973 6.47575 39.9946 7.39867C40.5219 8.37793 40.7905 9.47573 40.7748 10.588C40.7894 11.7034 40.5112 12.8031 39.9678 13.7773C39.4601 14.6999 38.7151 15.4699 37.8098 16.0075C36.9376 16.5382 35.937 16.8204 34.9161 16.8238C34.0891 16.8629 33.2698 16.6497 32.5667 16.2124C31.8636 15.775 31.3099 15.1343 30.9791 14.375V19.7811L25.9141 20.758V4.69557ZM35.0544 12.2785C35.2763 12.0567 35.452 11.7931 35.5714 11.5029C35.6908 11.2127 35.7515 10.9018 35.7499 10.588C35.7523 9.95262 35.5032 9.34216 35.0571 8.88999C34.6109 8.43782 34.004 8.18069 33.369 8.1748C33.0564 8.16902 32.746 8.22739 32.4569 8.3463C32.1678 8.46522 31.9061 8.64215 31.6881 8.86619C31.4674 9.07659 31.2923 9.33002 31.1734 9.61081C31.0545 9.89161 30.9945 10.1938 30.997 10.4987V10.5969C30.9957 11.2323 31.2451 11.8425 31.6908 12.2952C32.1366 12.7478 32.7428 13.0063 33.3779 13.0145C33.692 13.0162 34.0031 12.9529 34.2916 12.8285C34.5801 12.7041 34.8398 12.5215 35.0544 12.2919V12.2785Z" fill="white"/>
<path d="M44.9929 16.0061C44.0766 15.4512 43.3205 14.6672 42.7992 13.7312C42.2505 12.7556 41.969 11.6523 41.9833 10.533C41.9649 9.42867 42.247 8.34015 42.7992 7.38381C43.3163 6.45933 44.0705 5.68947 44.984 5.15354C45.8604 4.6305 46.8615 4.35316 47.8821 4.35064C48.7069 4.34641 49.5136 4.59211 50.1962 5.05541C50.9458 5.56622 51.514 6.30183 51.8191 7.15633V4.36402H56.8619V16.6484H51.8369V14.4181C51.5055 15.1766 50.9515 15.8164 50.2485 16.2529C49.5454 16.6894 48.7264 16.902 47.8999 16.8625C46.8701 16.8534 45.8632 16.5568 44.9929 16.0061ZM51.1102 12.3261C51.5537 11.9006 51.817 11.321 51.8459 10.7069V10.5151C51.8343 10.205 51.7614 9.90016 51.6313 9.6184C51.5012 9.33663 51.3165 9.08349 51.0879 8.87364C50.8683 8.65325 50.6068 8.47897 50.319 8.36101C50.0311 8.24305 49.7226 8.18378 49.4115 8.18669C49.1005 8.1896 48.7931 8.25462 48.5075 8.37795C48.2219 8.50127 47.9638 8.68041 47.7483 8.90486C47.52 9.12622 47.3393 9.39197 47.2174 9.68576C47.0955 9.97955 47.0349 10.2952 47.0394 10.6133C47.0333 10.9326 47.0935 11.2498 47.2163 11.5446C47.3391 11.8395 47.5218 12.1056 47.7528 12.3261C47.9761 12.5499 48.2417 12.7271 48.5341 12.8473C48.8265 12.9675 49.1399 13.0284 49.456 13.0264C49.7655 13.0331 50.0729 12.9741 50.358 12.8534C50.6431 12.7327 50.8995 12.553 51.1102 12.3261Z" fill="white"/>
<path d="M77.6877 16.0061C76.778 15.4488 76.0283 14.665 75.5119 13.7312C74.9651 12.7548 74.6838 11.6521 74.696 10.533C74.6799 9.42894 74.9617 8.34101 75.5119 7.38383C76.0291 6.45934 76.7832 5.68948 77.6967 5.15355C78.5747 4.63035 79.5773 4.35304 80.5993 4.35065C81.4317 4.34588 82.2455 4.59653 82.9312 5.0688C83.6821 5.57824 84.2507 6.31432 84.5541 7.16972V4.36403H89.6013V16.6484H84.563V14.4181C84.2316 15.1766 83.6776 15.8164 82.9746 16.2529C82.2715 16.6894 81.4525 16.902 80.626 16.8625C79.5858 16.8579 78.5677 16.5611 77.6877 16.0061ZM83.8229 12.3261C84.2631 11.8991 84.5232 11.3197 84.5497 10.7069V10.5151C84.5381 10.205 84.4652 9.90017 84.3351 9.61841C84.205 9.33664 84.0203 9.0835 83.7917 8.87365C83.572 8.65327 83.3106 8.47898 83.0228 8.36102C82.7349 8.24306 82.4264 8.18379 82.1153 8.1867C81.8043 8.18961 81.4969 8.25463 81.2113 8.37796C80.9257 8.50128 80.6676 8.68042 80.4521 8.90487C80.2238 9.12624 80.0431 9.39198 79.9212 9.68577C79.7993 9.97956 79.7387 10.2952 79.7432 10.6133C79.7371 10.9326 79.7973 11.2498 79.9201 11.5446C80.0429 11.8395 80.2256 12.1056 80.4566 12.3261C80.6799 12.5499 80.9455 12.7271 81.2379 12.8473C81.5303 12.9675 81.8437 13.0284 82.1598 13.0264C82.4708 13.0343 82.7799 12.976 83.0667 12.8553C83.3534 12.7345 83.6112 12.5541 83.8229 12.3261Z" fill="white"/>
<path d="M0 0V16.6423H11.0887V12.4895L5.1899 12.9713V0H0Z" fill="white"/>
<path d="M95.0823 8.33887H96.6785V10.5424L98.2168 9.00795L99.3448 10.1365L97.8556 11.6218H100V13.2945H97.918L99.4162 14.7933L98.2524 15.9575L96.7053 14.4097V16.6176H95.0823V14.4587L93.5575 15.9842L92.3937 14.82L93.9364 13.2767H91.7695V11.6352H93.8294L92.3492 10.1543L93.5441 8.95442L95.0467 10.4576L95.0823 8.33887Z" fill="#FF6060"/>
</svg>
