<svg width="32" height="32" viewBox="0 0 32 32" fill="none" xmlns="http://www.w3.org/2000/svg">
<path d="M31.2497 5.56252C32.1122 4.87502 32.2497 3.61252 31.5622 2.75002C30.8747 1.88752 29.6122 1.75002 28.7497 2.43752L19.9622 9.46877L13.1997 4.40002C12.4685 3.85002 11.4622 3.86877 10.7497 4.43752L0.74971 12.4375C-0.11279 13.125 -0.25029 14.3875 0.43721 15.25C1.12471 16.1125 2.38721 16.25 3.24971 15.5625L12.0372 8.53127L18.7997 13.6C19.531 14.15 20.5372 14.1313 21.2497 13.5625L31.2497 5.56252ZM9.99971 16V28C9.99971 29.1063 10.8935 30 11.9997 30C13.106 30 13.9997 29.1063 13.9997 28V16C13.9997 14.8938 13.106 14 11.9997 14C10.8935 14 9.99971 14.8938 9.99971 16ZM1.99971 22V28C1.99971 29.1063 2.89346 30 3.99971 30C5.10596 30 5.99971 29.1063 5.99971 28V22C5.99971 20.8938 5.10596 20 3.99971 20C2.89346 20 1.99971 20.8938 1.99971 22ZM19.9997 18C18.8935 18 17.9997 18.8938 17.9997 20V28C17.9997 29.1063 18.8935 30 19.9997 30C21.106 30 21.9997 29.1063 21.9997 28V20C21.9997 18.8938 21.106 18 19.9997 18ZM25.9997 16V28C25.9997 29.1063 26.8935 30 27.9997 30C29.106 30 29.9997 29.1063 29.9997 28V16C29.9997 14.8938 29.106 14 27.9997 14C26.8935 14 25.9997 14.8938 25.9997 16Z" fill="#FF6060"/>
<path d="M10 16V28C10 29.1062 10.8938 30 12 30C13.1062 30 14 29.1062 14 28V16C14 14.8937 13.1062 14 12 14C10.8938 14 10 14.8937 10 16ZM2 22V28C2 29.1062 2.89375 30 4 30C5.10625 30 6 29.1062 6 28V22C6 20.8938 5.10625 20 4 20C2.89375 20 2 20.8938 2 22ZM20 18C18.8937 18 18 18.8938 18 20V28C18 29.1062 18.8937 30 20 30C21.1063 30 22 29.1062 22 28V20C22 18.8938 21.1063 18 20 18ZM26 16V28C26 29.1062 26.8937 30 28 30C29.1063 30 30 29.1062 30 28V16C30 14.8937 29.1063 14 28 14C26.8937 14 26 14.8937 26 16Z" fill="#4E4CEC"/>
</svg>
